<svg width="364" height="150" viewBox="0 0 364 150" fill="none" xmlns="http://www.w3.org/2000/svg">
<g filter="url(#filter0_d_244_260)">
<path d="M14.6934 144.44L60.6655 144.301L106.632 144.249L198.57 144.157L290.509 144.249L336.475 144.301L382.447 144.44L336.475 144.584L290.509 144.635L198.57 144.728L106.632 144.635L60.6655 144.584L14.6934 144.44Z" fill="#263238"/>
<path d="M193.582 144.428H264.245L250.16 62.4673H197.315L193.582 144.428Z" fill="#DBDBDB"/>
<path d="M193.582 144.428H199.78L203.254 62.4673H197.315L193.582 144.428Z" fill="#A6A6A6"/>
<path d="M254.981 78.5343C262.977 96.3932 282.3 126.033 290.947 118.688C303.88 107.708 312.637 83.4196 316.093 73.5972C318.035 68.0955 290.008 58.8896 288.291 63.8843C285.848 70.9817 282.017 85.8161 279.799 87.9188C278.647 89.0192 269.464 76.132 262.517 70.0197C252.487 61.2112 252.429 72.831 254.981 78.5343Z" fill="#AD6359"/>
<path d="M323.093 65.3309C320.598 70.942 310.995 80.4303 307.803 81.8302C304.612 83.2301 287.755 68.0039 288.106 64.4207C288.458 60.8374 298.516 42.0683 304.087 39.1878C309.658 36.3074 325.679 59.5124 323.093 65.3309Z" fill="#AD6359"/>
<path d="M289.426 60.48C289.426 60.48 289.829 52.4954 287.813 45.7436C286.119 40.0691 282.968 31.8367 285.981 30.8113C292.179 28.7085 300.037 49.2462 300.037 49.2462C300.037 49.2462 302.054 58.8669 296.103 61.4939C292.37 63.1415 289.426 60.48 289.426 60.48Z" fill="#AD6359"/>
<path d="M296.414 45.3344C296.817 48.5663 300.395 46.2389 300.395 46.2389C300.395 46.2389 296.057 50.8476 297.762 53.9989C299.421 57.0464 303.638 54.0795 303.943 53.8721C303.713 54.1198 299.842 58.4405 301.887 61.4477C304.013 64.5701 307.734 60.8716 307.976 60.6297C307.832 60.9235 306.023 64.9043 308.097 66.8399C311.657 70.1525 316.566 60.1054 320.345 58.982C320.345 58.982 322.983 65.1635 323.093 65.3191C323.093 65.3191 327.961 55.8481 326.163 50.8361C325.911 50.1039 325.417 49.4794 324.763 49.0658C324.108 48.6521 323.332 48.4739 322.563 48.5605C322.563 48.5605 324.47 45.6801 322.937 43.2605C322.142 42.0219 319.481 42.1832 319.481 42.1832C319.481 42.1832 320.909 39.8155 319.412 37.7531C318.219 36.0997 315.713 36.5202 315.713 36.5202C315.713 36.5202 316.03 33.6052 314.267 32.3148C310.684 29.7108 295.544 38.4156 296.414 45.3344Z" fill="#AD6359"/>
<path d="M315.281 36.5377C315.333 36.5089 315.281 36.434 315.252 36.4513C309.572 38.0989 303.84 41.6361 300.187 46.3428C300.066 46.4983 300.262 46.7576 300.429 46.6136C305.148 42.4945 309.612 39.2281 315.281 36.5377Z" fill="#263238"/>
<path d="M319.515 42.1084C319.578 42.0796 319.515 41.9759 319.463 41.9931C313.616 43.7214 307.273 47.9038 303.696 53.8088C303.575 54.0104 303.667 54.3157 303.828 54.0968C306.501 50.3638 314.399 44.5107 319.515 42.1084Z" fill="#263238"/>
<path d="M307.867 61.1198C311.513 55.5893 316.566 51.7814 322.321 48.6186C322.39 48.5783 322.321 48.4803 322.258 48.4976C319.02 49.2754 315.563 51.6719 313.04 53.7689C310.652 55.6659 308.805 58.1572 307.682 60.9931C307.631 61.1198 307.792 61.2465 307.867 61.1198Z" fill="#263238"/>
<path d="M300.28 46.2334C300.136 46.4177 300.568 46.4235 300.429 46.6136C299.853 47.4086 296.771 52.507 298.183 54.1028C299.335 55.376 301.806 54.7308 302.67 54.1028L304.831 52.5416L303.344 54.7826C302.675 55.7645 302.17 56.8481 301.847 57.9914C301.668 58.5121 301.601 59.0648 301.652 59.613C301.703 60.1612 301.869 60.6924 302.14 61.1715C302.395 61.6154 302.794 61.958 303.272 62.1417C303.749 62.3253 304.275 62.3387 304.762 62.1796C305.845 61.8067 306.815 61.1621 307.579 60.3073L309.768 58.003L308.454 60.8834C308.087 61.6803 307.822 62.5204 307.665 63.3836C307.489 64.1951 307.555 65.0405 307.855 65.8148C308.004 66.1556 308.244 66.4486 308.549 66.6612C308.854 66.8738 309.212 66.9975 309.583 67.0188C310.425 66.9334 311.224 66.6096 311.888 66.0855C313.342 64.9741 314.708 63.751 315.972 62.4273C316.635 61.7821 317.297 61.1311 317.994 60.509C318.649 59.8538 319.434 59.3435 320.299 59.0111C319.477 59.4274 318.745 60.0009 318.144 60.6991C317.505 61.3616 316.894 62.0529 316.283 62.75C315.083 64.189 313.753 65.5139 312.308 66.7077C311.534 67.3648 310.585 67.7831 309.578 67.9117C309.022 67.917 308.477 67.7616 308.008 67.4641C307.539 67.1667 307.166 66.74 306.933 66.2353C306.53 65.2849 306.42 64.2358 306.617 63.2223C306.771 62.2584 307.052 61.319 307.452 60.4283L308.328 61.0044C307.44 62.0289 306.3 62.8034 305.021 63.2511C304.304 63.4804 303.53 63.4519 302.832 63.1705C302.157 62.8749 301.587 62.3831 301.196 61.7591C300.852 61.1512 300.642 60.4774 300.579 59.7823C300.515 59.0872 300.6 58.3865 300.827 57.7264C301.195 56.4743 301.769 55.2925 302.526 54.2295L303.2 54.8863C302.048 55.6352 299.375 56.6607 297.365 54.9151C295.141 52.2132 299.433 47.1091 300.28 46.2334Z" fill="#263238"/>
<path d="M300.394 46.2389C299.772 46.4873 299.115 46.6408 298.447 46.694C298.179 46.7217 297.908 46.677 297.663 46.5646C297.418 46.4521 297.207 46.276 297.053 46.0546C296.782 45.5215 296.672 44.9209 296.736 44.3263C296.771 43.6695 296.84 42.984 296.944 42.2754C296.505 42.8543 296.195 43.5201 296.033 44.2283C295.923 44.6106 295.888 45.0109 295.933 45.4064C295.977 45.8019 296.1 46.1847 296.293 46.5327C296.545 46.8943 296.9 47.1714 297.312 47.3277C297.709 47.4573 298.134 47.4733 298.539 47.3738C299.262 47.2004 299.911 46.8032 300.394 46.2389Z" fill="#263238"/>
<path d="M286.586 64.4204L315.759 84.7392C315.759 84.7392 298.332 120.843 287.565 120.745C276.798 120.647 261.244 93.6052 255.88 81.9163C250.517 70.2274 253.714 60.3244 264.568 70.9706C275.421 81.6168 279.31 86.0066 279.661 85.8626C280.318 85.5976 286.586 64.4204 286.586 64.4204Z" fill="#7149C4"/>
<path d="M315.759 84.7393C315.759 84.7393 303.661 109.776 293.413 118.095C291.356 119.766 289.38 120.762 287.565 120.739C276.798 120.647 261.244 93.5996 255.852 81.9164C252.516 74.6807 252.487 68.1305 255.517 66.7191C257.39 65.8492 260.414 66.9207 264.545 70.988C275.491 81.709 279.281 86.0182 279.638 85.8742C280.318 85.5976 286.592 64.4263 286.592 64.4263L315.759 84.7393Z" fill="#7149C4"/>
<path d="M297.704 113.832C297.347 114.247 296.984 114.65 296.621 115.042C293.338 117.109 289.655 118.458 285.814 119C284.754 119.117 283.688 119.159 282.622 119.126L281.96 118.712C283.231 118.789 284.507 118.756 285.773 118.614C287.289 118.448 288.78 118.104 290.215 117.588L291.304 117.231L292.358 116.788C292.71 116.638 293.073 116.511 293.412 116.338L294.432 115.82C295.566 115.232 296.66 114.568 297.704 113.832ZM275.571 82.0262C272.242 83.5403 269.206 85.6289 266.601 88.1961C264.912 89.8605 263.35 91.6495 261.929 93.548C261.998 93.6747 262.073 93.8072 262.154 93.934C263.592 92.0036 265.177 90.1873 266.895 88.5014C269.078 86.3571 271.564 84.5461 274.275 83.1265L275.294 82.608C275.482 82.5131 275.674 82.4285 275.87 82.3545L275.571 82.0262ZM300.769 83.8639C298.002 82.5098 295.108 81.4349 292.128 80.6551C291.817 80.5802 291.506 80.5053 291.189 80.4419C290.987 80.3958 290.78 80.3497 290.578 80.3152C288.06 79.7875 285.475 79.6553 282.916 79.9234C282.542 79.9753 282.173 80.0329 281.798 80.102C281.758 80.2345 281.712 80.3728 281.672 80.4995C282.098 80.4246 282.53 80.3613 282.962 80.3094C285.337 80.0585 287.736 80.1575 290.083 80.6032L290.711 80.7184C291.154 80.8106 291.598 80.9086 292.041 81.018C294.996 81.7795 297.868 82.8332 300.614 84.1635C304.727 86.1813 308.717 88.4416 312.562 90.9325C312.619 90.8346 312.671 90.7367 312.717 90.6445C308.873 88.1487 304.883 85.8844 300.769 83.8639ZM303.794 76.4093C299.123 76.6021 294.572 77.9437 290.543 80.3152L290.048 80.6032C289.031 81.2129 288.048 81.8783 287.104 82.5965C282.167 86.3526 278.227 91.1803 274.476 96.0367C272.598 98.4736 270.755 100.928 268.808 103.301C268.669 103.474 268.525 103.641 268.381 103.814L268.6 104.131C268.767 103.935 268.934 103.739 269.096 103.555C271.054 101.175 272.904 98.7213 274.787 96.2902C278.538 91.451 282.472 86.6579 287.358 82.9537C288.417 82.146 289.525 81.4052 290.676 80.7357C290.832 80.6378 290.993 80.5456 291.154 80.4592C292.496 79.7062 293.894 79.059 295.337 78.5235L296.414 78.1318C296.771 78.005 297.145 77.9186 297.514 77.8092L298.615 77.5038L299.767 77.2792C301.254 76.9438 302.776 76.7852 304.301 76.8068H304.37L303.794 76.4093ZM267.989 74.3987C265.977 75.2932 263.873 75.9673 261.716 76.4093L260.592 76.6282C260.218 76.6973 259.838 76.7204 259.44 76.7722L258.288 76.9047L257.136 76.9508C256.084 77.0238 255.028 77.0046 253.979 76.8932L254.083 77.2734C258.952 77.6288 263.833 76.749 268.272 74.7156C268.208 74.6061 268.099 74.5024 267.989 74.3987ZM259.682 67.2437C257.642 68.6295 255.527 69.9008 253.345 71.0516C253.345 71.2072 253.345 71.3627 253.345 71.524C255.673 70.3067 257.924 68.9485 260.085 67.4568C259.947 67.3819 259.815 67.307 259.682 67.2437Z" fill="white"/>
<path d="M308.863 88.1267C308.091 87.4872 307.314 86.865 306.53 86.2428C304.94 84.987 303.35 83.7368 301.76 82.4925C298.592 80.0211 295.354 77.636 292.093 75.2913C290.244 73.9548 288.424 72.5491 286.517 71.299C286.508 71.2922 286.497 71.2873 286.486 71.2844C286.475 71.2816 286.464 71.281 286.453 71.2826C286.441 71.2842 286.431 71.288 286.421 71.2938C286.411 71.2996 286.403 71.3072 286.396 71.3163C286.389 71.3254 286.384 71.3357 286.381 71.3467C286.378 71.3577 286.378 71.3691 286.379 71.3804C286.381 71.3916 286.385 71.4024 286.39 71.4122C286.396 71.4219 286.404 71.4305 286.413 71.4373C287.928 72.7738 289.553 73.9951 291.125 75.2683C292.698 76.5415 294.259 77.8204 295.855 79.0647C299.027 81.5304 302.238 83.9481 305.487 86.3177C306.392 86.986 307.285 87.6888 308.224 88.3168C308.702 88.6394 309.157 88.9966 309.641 89.3076C310.125 89.6187 310.643 89.8837 311.116 90.2352C311.127 90.2413 311.139 90.2434 311.151 90.241C311.164 90.2386 311.175 90.2319 311.182 90.2222C311.19 90.2124 311.194 90.2002 311.193 90.1878C311.193 90.1753 311.188 90.1635 311.179 90.1545C310.39 89.492 309.653 88.7719 308.863 88.1267Z" fill="#263238"/>
<path d="M279.886 85.2174C278.772 88.2271 277.856 91.3061 277.144 94.4349C276.763 95.9788 276.464 97.5401 276.17 99.0955C275.859 100.641 275.651 102.206 275.548 103.779C275.548 103.837 275.634 103.837 275.646 103.779C276.13 102.276 276.487 100.709 276.833 99.1704C277.178 97.6322 277.57 96.0825 277.916 94.5617C278.613 91.4623 279.431 88.3917 280.036 85.2751C280.039 85.2652 280.041 85.2547 280.041 85.2442C280.041 85.2337 280.038 85.2233 280.034 85.2137C280.03 85.204 280.024 85.1953 280.016 85.1881C280.008 85.1808 279.999 85.1752 279.99 85.1714C279.98 85.1676 279.969 85.1658 279.959 85.166C279.948 85.1663 279.938 85.1687 279.928 85.1729C279.919 85.1772 279.91 85.1834 279.903 85.191C279.895 85.1986 279.89 85.2076 279.886 85.2174Z" fill="#263238"/>
<path opacity="0.1" d="M293.413 118.095C291.356 119.766 289.38 120.762 287.565 120.739C276.798 120.647 261.244 93.5997 255.852 81.9165C252.516 74.6808 252.487 68.1307 255.517 66.7192L293.413 118.095Z" fill="black"/>
<path d="M276.712 144.428H206.676C205.904 143.011 217.38 81.6685 241 64.3915C246.242 60.5605 255.54 63.0261 258.121 66.7534C271.118 85.4822 276.712 144.428 276.712 144.428Z" fill="#7149C4"/>
<path d="M273.071 117.197C271.322 116.577 269.609 115.864 267.938 115.059C265.593 113.936 263.329 112.692 261.076 111.378L260.748 111.182C258.444 109.817 256.139 108.371 253.881 106.913L253.558 106.706L252.026 105.715C246.841 102.391 241.737 98.969 236.201 96.3075C233.464 94.9391 230.559 93.9395 227.559 93.3348C226.054 93.0664 224.522 92.9813 222.997 93.0814C222.616 93.0814 222.242 93.162 221.845 93.2139C221.585 93.2657 221.326 93.3003 221.061 93.3521C221.101 93.26 221.136 93.1735 221.182 93.0814C221.389 93.041 221.603 93.0065 221.81 92.9604C222.19 92.9143 222.576 92.8567 222.962 92.8279C224.503 92.7244 226.05 92.8076 227.571 93.0756C230.602 93.6751 233.539 94.6768 236.304 96.054C241.869 98.7155 247.008 102.138 252.182 105.45L253.702 106.424L254.031 106.631C256.335 108.112 258.64 109.581 261.03 110.969L261.359 111.165C263.548 112.438 265.777 113.648 268.07 114.737C269.672 115.503 271.312 116.185 272.984 116.782L273.071 117.197ZM266.837 87.9484L266.601 88.173C262.159 92.4995 258.841 97.7765 255.713 103.054C255.052 104.179 254.388 105.302 253.72 106.424C253.668 106.522 253.616 106.614 253.558 106.706C252.712 108.135 251.859 109.558 250.972 110.957C250.194 112.19 249.382 113.406 248.518 114.581C248.437 114.691 248.362 114.8 248.281 114.904C247.407 116.085 246.464 117.214 245.459 118.285C244.41 119.398 243.252 120.401 242.002 121.281L241.535 121.609C241.38 121.719 241.207 121.805 241.046 121.903L240.061 122.479C239.382 122.822 238.681 123.12 237.964 123.372C235.058 124.337 232.016 124.829 228.954 124.83C225.902 124.818 222.862 124.472 219.886 123.799C217.005 123.188 214.211 122.37 211.394 121.552C211.394 121.644 211.348 121.736 211.319 121.823C214.131 122.646 216.954 123.476 219.822 124.092C222.834 124.779 225.911 125.135 229 125.152C232.096 125.154 235.173 124.66 238.113 123.689C238.847 123.437 239.563 123.135 240.256 122.785L241.265 122.209C241.435 122.118 241.6 122.018 241.76 121.909L242.238 121.575C243.507 120.686 244.683 119.671 245.747 118.545C246.819 117.397 247.823 116.187 248.754 114.921C248.84 114.812 248.915 114.708 248.99 114.598C249.808 113.481 250.58 112.334 251.294 111.171C252.187 109.771 253.023 108.348 253.887 106.925L254.054 106.643L256.053 103.267C259.187 97.9954 262.505 92.7645 266.901 88.4899L266.976 88.4208C266.924 88.2537 266.878 88.0982 266.837 87.9484ZM270.161 101.631C269.718 102.207 269.268 102.748 268.813 103.301C266.906 105.699 264.774 107.91 262.447 109.903C261.987 110.266 261.526 110.629 261.048 110.969L260.748 111.182C260.081 111.653 259.382 112.076 258.657 112.45L258.156 112.72C257.989 112.813 257.804 112.876 257.631 112.957L256.583 113.406C255.868 113.664 255.137 113.874 254.394 114.034C252.608 114.416 250.787 114.609 248.961 114.61H248.518C247.435 114.61 246.351 114.523 245.274 114.408C242.234 114.026 239.245 113.309 236.362 112.271C233.482 111.274 230.641 110.047 227.819 108.814C225.009 107.543 222.123 106.449 219.177 105.536C218.307 105.289 217.449 105.07 216.527 104.909L216.441 105.156C217.339 105.323 218.232 105.536 219.102 105.79C222.031 106.705 224.9 107.802 227.692 109.074C230.515 110.289 233.338 111.522 236.247 112.53C239.155 113.576 242.168 114.303 245.234 114.696C246.248 114.812 247.262 114.886 248.276 114.904C248.425 114.904 248.569 114.904 248.719 114.904C250.654 114.935 252.585 114.753 254.48 114.362C255.238 114.195 255.984 113.981 256.715 113.723L257.787 113.262C257.965 113.181 258.144 113.118 258.317 113.026L258.83 112.749C259.616 112.348 260.371 111.888 261.088 111.372L261.387 111.159C261.825 110.842 262.257 110.508 262.684 110.168C265.034 108.167 267.187 105.944 269.113 103.532C269.497 103.059 269.881 102.581 270.265 102.097C270.23 101.947 270.196 101.786 270.161 101.631ZM262.926 76.1385C262.522 76.2364 262.119 76.3286 261.716 76.4093L260.592 76.6282C260.218 76.6973 259.838 76.7204 259.44 76.7722L258.288 76.9047L257.136 76.9508C255.615 77.0493 254.087 76.968 252.585 76.7088C250.228 76.3015 247.945 75.5463 245.81 74.4678L245.234 74.1855C244.831 73.9781 244.433 73.7592 244.041 73.5346C241.404 71.9862 238.93 70.1758 236.656 68.1308L236.402 68.3843C238.698 70.4511 241.193 72.2844 243.851 73.8572C244.128 74.0185 244.427 74.174 244.692 74.3238L245.268 74.6119C247.546 75.807 249.995 76.6444 252.527 77.0948C256.038 77.5876 259.611 77.3919 263.047 76.5187C263.024 76.392 262.972 76.2652 262.926 76.1385ZM258.824 67.814C255.764 69.8661 252.5 71.5941 249.082 72.97C247.843 73.4529 246.575 73.8588 245.286 74.1855L244.744 74.3238C243.247 74.672 241.726 74.9088 240.193 75.0324L239.041 75.1073C238.661 75.1361 238.28 75.1073 237.889 75.1073H236.737L235.584 75.0151C234.196 74.9349 232.821 74.705 231.483 74.3296C231.402 74.439 231.321 74.5485 231.246 74.6637C235.847 75.8191 240.665 75.8013 245.257 74.6119L245.833 74.4678C246.982 74.1635 248.113 73.7942 249.22 73.3617C252.655 71.9766 255.937 70.239 259.014 68.1769L258.824 67.814ZM276.055 138.402C275.479 138.402 274.857 138.454 274.257 138.472H274.211L273.86 138.5C270.908 138.809 268.038 139.663 265.397 141.018C263.507 142.005 261.702 143.146 259.999 144.428H260.362C261.987 143.225 263.705 142.154 265.501 141.225C268.165 139.865 271.061 139.019 274.038 138.731H274.252H274.39C274.966 138.731 275.507 138.667 276.061 138.673C276.072 138.57 276.066 138.489 276.055 138.402ZM276.354 141.053C275.728 140.258 275.081 139.476 274.413 138.708C274.35 138.627 274.28 138.552 274.211 138.477L273.975 138.201C271.962 135.855 269.647 133.786 267.091 132.048C265.793 131.202 264.396 130.519 262.931 130.015C262.568 129.894 262.188 129.79 261.82 129.686C261.451 129.583 261.065 129.502 260.667 129.45C259.907 129.306 259.129 129.294 258.363 129.22C255.266 129.106 252.176 129.598 249.267 130.666C246.384 131.762 243.631 133.172 241.057 134.871C236.448 137.838 232.249 141.329 227.761 144.428H227.951C232.416 141.381 236.592 137.953 241.155 135.05C243.719 133.362 246.463 131.966 249.336 130.885C252.216 129.83 255.275 129.347 258.34 129.462C259.095 129.542 259.867 129.554 260.616 129.698C260.996 129.75 261.359 129.859 261.733 129.934C262.108 130.009 262.471 130.136 262.828 130.257C264.271 130.756 265.647 131.434 266.924 132.273C269.458 133.999 271.75 136.057 273.739 138.391C273.773 138.431 273.808 138.466 273.837 138.506L274.038 138.731C274.845 139.67 275.634 140.626 276.395 141.611C276.4 141.427 276.377 141.248 276.343 141.053H276.354Z" fill="white"/>
<path d="M231.702 71.9098C217.443 88.4033 198.225 117.536 206.077 123.977C218.987 134.566 256.692 140.684 265.345 141.709C269.078 142.158 276.556 117.755 274.062 114.598C271.567 111.441 231.702 109.212 231.431 106.763C231.275 105.375 237.33 93.3001 241.224 78.4888C245.701 61.4134 235.717 67.2607 231.702 71.9098Z" fill="#AD6359"/>
<path d="M267.529 112.588C267.529 112.588 278.97 112.501 286.453 112.795C290.63 112.956 297.762 113.878 300.775 115.405C305.28 117.68 322.666 130.095 319.751 134.375C317.107 138.247 303.523 125.688 303.523 125.688C303.523 125.688 318.351 137.152 314.313 141.242C310.275 145.333 296.811 129.098 296.811 129.098C296.811 129.098 311.79 141.196 306.956 144.768C303.304 147.447 290.284 133.436 290.284 133.436C290.284 133.436 303.079 143.938 299.444 146.859C295.411 150.085 282.593 137.907 282.593 137.907C272.108 143.771 264.735 142.274 259.55 140.586C258.334 140.154 267.529 112.588 267.529 112.588Z" fill="#AD6359"/>
<path d="M298.649 121.396C300.441 122.681 302.262 123.965 303.932 125.429C305.603 126.892 307.222 128.361 308.754 129.951C312.504 133.845 314.244 136.864 314.112 136.691C311.093 132.549 305.194 127.312 303.523 125.872C301.853 124.432 300.257 122.917 298.592 121.482C298.552 121.419 298.609 121.367 298.649 121.396Z" fill="#263238"/>
<path d="M293.349 127.336C295.562 129.064 297.826 130.711 299.963 132.549C302.1 134.387 304.992 137.037 306.991 139.007C307.141 139.157 306.991 139.445 306.83 139.301C304.756 137.411 301.674 134.831 299.577 132.964C297.48 131.097 295.458 129.156 293.303 127.376C293.269 127.37 293.315 127.307 293.349 127.336Z" fill="#263238"/>
<path d="M287.865 131.61C291.385 134.093 294.444 137.221 297.37 140.361C297.52 140.517 297.37 140.54 297.186 140.39C294.081 137.423 291.661 135.073 287.778 131.748C287.732 131.679 287.807 131.558 287.865 131.61Z" fill="#263238"/>
<path d="M265.921 112.224C271.141 112.19 286.47 112.149 291.678 112.553C296.287 112.904 300.083 113.895 303.949 116.453C312.245 121.937 317.591 128.378 318.927 130.279C319.734 131.431 320.903 133.292 319.838 134.582C318.53 136.149 313.72 134.617 308.644 130.025C308.46 129.858 308.575 129.755 308.765 129.91C315.891 135.671 318.726 135.014 319.469 134.029C319.953 133.39 319.469 132.301 319.054 131.437C318.36 130.214 317.512 129.085 316.531 128.078C313.257 124.576 309.636 121.417 305.723 118.648C301.531 115.518 296.537 113.643 291.321 113.238C285.986 112.8 271.227 112.939 265.898 112.426C265.789 112.391 265.806 112.23 265.921 112.224Z" fill="#263238"/>
<path d="M315.16 138.938C314.866 137.515 313.841 136.213 313.029 135.038C312.042 133.559 310.909 132.183 309.647 130.93C309.595 130.879 309.497 130.93 309.549 131.011C310.624 132.268 311.622 133.587 312.539 134.963C313.026 135.72 313.469 136.505 313.864 137.314C314.238 138.091 314.682 138.99 314.486 139.877C314.117 141.571 311.963 141.531 310.69 141.075C309.865 140.765 309.07 140.379 308.316 139.923C307.289 139.269 306.314 138.535 305.401 137.728C305.326 137.659 305.119 137.688 305.199 137.763C307.101 139.572 310.701 143.334 313.639 141.957C314.203 141.708 314.663 141.271 314.94 140.72C315.218 140.169 315.295 139.54 315.16 138.938Z" fill="#263238"/>
<path d="M267.702 111.107L253.997 142.216C253.997 142.216 206.1 131.403 203.324 122.312C200.547 113.222 215.554 88.8989 229.098 73.7131C242.417 58.7923 244.388 68.9143 241.075 80.4534C237.763 91.9925 232.33 105.294 232.935 106.291C233.54 107.288 267.702 111.107 267.702 111.107Z" fill="#7149C4"/>
<path d="M236.016 95.9153C235.982 96.0017 235.953 96.0939 235.918 96.1803C233.258 94.8717 230.438 93.915 227.53 93.3344C226.025 93.066 224.493 92.9809 222.968 93.0809C222.588 93.0809 222.213 93.1616 221.816 93.2134C221.418 93.2653 221.067 93.3286 220.698 93.4323C219.949 93.5936 219.241 93.8817 218.509 94.1064C215.686 95.1805 213.096 96.7883 210.881 98.8418L211.244 98.2139C213.357 96.3484 215.789 94.879 218.422 93.8759C219.16 93.6455 219.88 93.3517 220.64 93.1904C221.015 93.0867 221.401 93.0406 221.793 92.9599C222.184 92.8793 222.559 92.8562 222.945 92.8274C224.485 92.7239 226.033 92.8071 227.554 93.0751C230.486 93.6499 233.331 94.6046 236.016 95.9153ZM261.364 111.164L261.036 110.969L259.722 110.191L258.927 110.099C259.504 110.462 260.132 110.83 260.736 111.182L261.065 111.378C262.793 112.386 264.521 113.354 266.296 114.258L266.434 113.941C264.729 113.06 263.041 112.132 261.364 111.164ZM252.014 109.258C251.669 109.834 251.317 110.41 250.96 110.957C250.182 112.19 249.37 113.405 248.506 114.581C248.425 114.69 248.35 114.8 248.27 114.903C247.395 116.084 246.453 117.214 245.447 118.285C244.399 119.397 243.24 120.401 241.99 121.281L241.524 121.609C241.368 121.718 241.195 121.805 241.034 121.903L240.049 122.479C239.37 122.821 238.67 123.12 237.952 123.372C235.046 124.337 232.004 124.829 228.942 124.829C225.895 124.816 222.858 124.471 219.886 123.798C216.884 123.159 213.94 122.289 210.985 121.43C208.364 120.67 205.725 119.904 203.029 119.403C203.029 119.495 203.029 119.587 203.029 119.673C205.697 120.175 208.306 120.946 210.916 121.701C213.866 122.565 216.821 123.429 219.834 124.092C222.845 124.779 225.922 125.134 229.011 125.152C232.108 125.154 235.184 124.66 238.125 123.689C238.859 123.436 239.575 123.134 240.268 122.784L241.276 122.208C241.446 122.117 241.612 122.017 241.771 121.909L242.25 121.574C243.519 120.686 244.694 119.671 245.758 118.544C246.831 117.396 247.835 116.186 248.765 114.921C248.852 114.811 248.927 114.707 249.001 114.598C249.819 113.48 250.591 112.334 251.306 111.17C251.698 110.56 252.078 109.937 252.458 109.321L252.014 109.258ZM261.762 110.41C261.526 110.594 261.284 110.778 261.036 110.951L260.736 111.164C260.07 111.635 259.371 112.058 258.645 112.432L258.144 112.703C257.977 112.795 257.793 112.858 257.62 112.939L256.571 113.388C255.856 113.646 255.125 113.856 254.382 114.016C252.597 114.398 250.776 114.592 248.95 114.592H248.506C247.423 114.592 246.34 114.506 245.263 114.391C242.222 114.008 239.234 113.291 236.35 112.253C233.47 111.257 230.63 110.03 227.807 108.797C224.997 107.526 222.111 106.431 219.166 105.519C216.21 104.672 213.059 104.211 210 104.81C209.027 105.006 208.085 105.333 207.2 105.784C207.143 105.899 207.085 106.02 207.033 106.135C207.98 105.63 208.995 105.266 210.046 105.052C213.053 104.476 216.164 104.925 219.091 105.772C222.019 106.687 224.888 107.784 227.68 109.056C230.503 110.271 233.326 111.504 236.235 112.512C239.146 113.565 242.164 114.298 245.234 114.696C246.248 114.811 247.262 114.886 248.276 114.903C248.425 114.903 248.569 114.903 248.719 114.903C250.653 114.935 252.585 114.753 254.48 114.362C255.237 114.194 255.984 113.981 256.715 113.722L257.787 113.261C257.965 113.181 258.144 113.117 258.317 113.025L258.83 112.749C259.616 112.348 260.371 111.887 261.088 111.372L261.387 111.159C261.687 110.94 261.964 110.709 262.286 110.479L261.762 110.41ZM236.679 68.1016C236.431 67.8826 236.189 67.6695 235.947 67.4448L235.636 67.6464L236.443 68.3666C238.318 70.046 240.321 71.5773 242.434 72.9465C242.434 72.8025 242.434 72.6585 242.434 72.5202C240.412 71.199 238.492 69.7278 236.69 68.1188L236.679 68.1016ZM240.181 75.0147L239.029 75.0896C238.649 75.1184 238.269 75.0896 237.877 75.0896H236.725L235.573 74.9974C234.049 74.9063 232.541 74.6395 231.079 74.2024C230.44 74.0123 229.806 73.7933 229.184 73.5399L229.046 73.6954L228.913 73.8452C229.585 74.1267 230.271 74.3709 230.97 74.5768C234.619 75.551 238.429 75.7628 242.163 75.199C242.163 75.055 242.204 74.9167 242.227 74.7727C241.587 74.8995 240.89 74.9801 240.193 75.0319L240.181 75.0147ZM258.363 129.202C255.265 129.094 252.175 129.591 249.266 130.665C246.384 131.761 243.631 133.171 241.057 134.871C239.617 135.804 238.211 136.783 236.823 137.791L237.048 137.855C238.396 136.881 239.761 135.942 241.161 135.049C243.725 133.362 246.469 131.965 249.341 130.884C252.222 129.83 255.28 129.346 258.346 129.461C258.743 129.501 259.141 129.524 259.538 129.559L259.648 129.317C259.239 129.283 258.801 129.259 258.374 129.219L258.363 129.202Z" fill="white"/>
<path d="M248.5 137.071C248.967 136.184 249.416 135.297 249.866 134.404C250.768 132.595 251.667 130.782 252.562 128.966C254.336 125.36 256.018 121.707 257.637 118.02C258.565 115.935 259.573 113.872 260.408 111.746C260.418 111.725 260.419 111.701 260.411 111.678C260.403 111.656 260.386 111.638 260.365 111.628C260.344 111.618 260.319 111.617 260.297 111.626C260.275 111.634 260.257 111.65 260.247 111.672C259.25 113.429 258.386 115.266 257.464 117.07C256.543 118.873 255.604 120.659 254.716 122.479C252.95 126.085 251.237 129.721 249.578 133.384C249.111 134.41 248.604 135.424 248.184 136.472C247.965 137.008 247.711 137.527 247.498 138.068C247.285 138.61 247.124 139.163 246.922 139.698C246.919 139.704 246.918 139.71 246.918 139.717C246.917 139.723 246.918 139.729 246.92 139.735C246.922 139.741 246.926 139.746 246.93 139.751C246.934 139.755 246.939 139.759 246.945 139.762C246.951 139.764 246.957 139.766 246.963 139.766C246.969 139.767 246.976 139.766 246.981 139.763C246.987 139.761 246.993 139.758 246.997 139.754C247.002 139.75 247.006 139.744 247.008 139.739C247.475 138.846 248.022 137.982 248.5 137.071Z" fill="#263238"/>
<path d="M255.028 140.079L254.066 142.257L254.037 142.326H253.945C249.411 141.485 244.906 140.476 240.43 139.353C235.953 138.23 231.512 136.956 227.116 135.539C222.705 134.145 218.379 132.495 214.16 130.596C212.043 129.644 209.998 128.539 208.042 127.29C207.065 126.653 206.143 125.938 205.282 125.152C204.395 124.392 203.715 123.418 203.306 122.324C203.816 123.352 204.56 124.246 205.478 124.933C206.387 125.632 207.353 126.254 208.364 126.794C210.365 127.907 212.431 128.897 214.551 129.761C218.786 131.518 223.135 133.016 227.508 134.422C231.88 135.827 236.293 137.135 240.718 138.391C245.142 139.647 249.584 140.891 254.031 142.084L253.916 142.141L255.028 140.079Z" fill="#263238"/>
<path d="M267.154 112.317L267.633 111.078L267.684 111.164C262.88 110.848 258.081 110.462 253.282 109.96C248.483 109.459 243.713 108.912 238.943 108.198C237.751 108.013 236.558 107.817 235.366 107.587C234.79 107.466 234.173 107.351 233.557 107.178C233.401 107.132 233.251 107.086 233.084 107.022C232.988 106.991 232.896 106.951 232.808 106.901C232.74 106.865 232.677 106.823 232.618 106.775C232.556 106.723 232.503 106.66 232.462 106.59C232.439 106.545 232.417 106.499 232.399 106.452C232.395 106.429 232.395 106.406 232.399 106.383C232.376 106.164 232.387 105.942 232.433 105.726C232.462 105.571 232.491 105.404 232.531 105.26C233.142 102.869 233.914 100.61 234.697 98.3464C236.264 93.7896 237.97 89.2903 239.767 84.8198C238.379 89.4286 236.956 94.0373 235.538 98.646C234.859 100.95 234.11 103.255 233.585 105.559C233.551 105.703 233.534 105.836 233.505 105.974C233.476 106.112 233.505 106.273 233.476 106.216C233.47 106.185 233.458 106.156 233.441 106.129C233.441 106.072 233.338 106.014 233.361 106.026C233.332 106.026 233.384 106.037 233.361 106.026L233.505 106.083L233.885 106.204C234.461 106.354 235.037 106.464 235.613 106.579C236.765 106.792 237.97 106.976 239.151 107.155C241.524 107.512 243.901 107.848 246.283 108.163L253.432 109.125C258.196 109.759 262.96 110.439 267.725 111.136H267.811L267.777 111.211L267.154 112.317Z" fill="#263238"/>
<path d="M240.28 87.7695C239.942 88.5823 239.515 89.3551 239.007 90.0739C238.529 90.8093 237.947 91.4711 237.278 92.0384C237.716 91.2722 238.183 90.5463 238.678 89.8262C239.159 89.101 239.695 88.4135 240.28 87.7695Z" fill="#263238"/>
<path d="M254.238 77.1293C250.171 78.2814 242.843 72.3304 239.836 67.3703C239.629 67.0304 240.447 53.0198 240.32 50.2258C240.32 49.6497 258.029 53.6823 258.029 53.6823C258.029 53.6823 256.572 59.6161 256.825 64.484C256.842 64.8988 258.162 76.0116 254.238 77.1293Z" fill="#AD6359"/>
<path d="M240.049 58.9997C248.339 64.8528 256.416 62.6061 256.756 62.5024C256.892 59.5327 257.303 56.5821 257.983 53.6882C257.983 53.6882 240.239 49.6555 240.268 50.2316C240.372 51.5394 240.228 55.3185 240.049 58.9997Z" fill="#263238"/>
<path d="M257.943 42.1433C258.398 46.2796 261.71 49.3099 265.334 48.9066C268.957 48.5034 271.533 44.8336 271.095 40.7031C270.657 36.5725 267.333 33.5365 263.703 33.9398C260.074 34.343 257.487 38.0127 257.943 42.1433Z" fill="#455A64"/>
<path d="M255.845 42.6386C256.352 47.2473 260.034 50.6059 264.066 50.1623C268.099 49.7188 270.979 45.6343 270.455 41.0313C269.931 36.4283 266.273 33.0639 262.234 33.5075C258.196 33.9511 255.338 38.0414 255.845 42.6386Z" fill="#C7C7C7"/>
<path d="M237.866 29.175C235.93 35.3852 239.104 53.3708 243.5 57.4035C249.877 63.2508 260.374 63.8672 265.351 56.1937C270.179 48.7506 265.628 25.39 260.708 21.7203C253.466 16.3051 240.723 20.0093 237.866 29.175Z" fill="#AD6359"/>
<path d="M252.809 40.4664C252.809 40.4261 252.729 40.5413 252.74 40.5931C253.005 41.7914 253.115 43.2144 252.101 43.825C252.066 43.825 252.101 43.9057 252.101 43.8884C253.42 43.4448 253.259 41.561 252.809 40.4664Z" fill="#263238"/>
<path d="M251.49 39.4125C249.52 39.6372 250.113 43.5662 251.939 43.3588C253.766 43.1514 253.143 39.2282 251.49 39.4125Z" fill="#263238"/>
<path d="M259.804 39.5213C259.804 39.4752 259.907 39.5674 259.913 39.6192C260.057 40.8406 260.431 42.2117 261.589 42.4536C261.624 42.4536 261.635 42.5228 261.589 42.5228C260.213 42.5343 259.746 40.7023 259.804 39.5213Z" fill="#263238"/>
<path d="M260.696 38.0761C262.632 37.6325 263.375 41.5327 261.583 41.9475C259.792 42.3622 259.06 38.4621 260.696 38.0761Z" fill="#263238"/>
<path d="M249.67 37.8509C250.164 37.6229 250.645 37.3671 251.11 37.0847C251.654 36.8858 252.118 36.5133 252.429 36.0247C252.497 35.8517 252.505 35.6613 252.453 35.4831C252.401 35.3049 252.291 35.149 252.141 35.0396C251.814 34.8676 251.446 34.7865 251.076 34.8048C250.706 34.823 250.348 34.9399 250.039 35.1433C249.344 35.4563 248.792 36.0171 248.489 36.716C248.428 36.8791 248.417 37.0563 248.456 37.2259C248.494 37.3956 248.582 37.5501 248.707 37.6707C248.833 37.7912 248.991 37.8725 249.162 37.9045C249.333 37.9365 249.509 37.9179 249.67 37.8509Z" fill="#263238"/>
<path d="M261.941 35.8809C261.397 35.8541 260.854 35.7983 260.316 35.7138C259.738 35.7356 259.169 35.5655 258.697 35.2299C258.568 35.0954 258.487 34.9216 258.467 34.7359C258.447 34.5503 258.49 34.3633 258.588 34.2045C258.829 33.9228 259.141 33.71 259.491 33.5876C259.841 33.4652 260.217 33.4375 260.581 33.5074C261.342 33.539 262.063 33.8533 262.603 34.3888C262.719 34.517 262.796 34.6761 262.823 34.8467C262.85 35.0174 262.828 35.1924 262.757 35.3503C262.687 35.5083 262.573 35.6425 262.428 35.7367C262.283 35.8309 262.114 35.881 261.941 35.8809Z" fill="#263238"/>
<path d="M253.478 51.8677C253.812 52.1096 254.163 52.4438 254.63 52.4438C255.081 52.3676 255.511 52.1968 255.892 51.9426C255.899 51.9342 255.909 51.9288 255.919 51.9277C255.93 51.9267 255.941 51.9299 255.949 51.9368C255.958 51.9437 255.963 51.9536 255.964 51.9644C255.965 51.9752 255.962 51.986 255.955 51.9944C255.818 52.261 255.611 52.4851 255.357 52.6425C255.102 52.7999 254.809 52.8846 254.509 52.8873C254.252 52.8613 254.008 52.7591 253.809 52.5939C253.61 52.4287 253.465 52.208 253.391 51.9598C253.34 51.9022 253.426 51.8331 253.478 51.8677Z" fill="#263238"/>
<path d="M254.204 48.037C254.586 48.471 255.053 48.8214 255.576 49.0662C256.1 49.3111 256.668 49.4451 257.246 49.46C257.752 49.4799 258.258 49.4275 258.749 49.3044C258.844 49.2871 258.937 49.2601 259.026 49.2238C259.114 49.2013 259.2 49.1744 259.285 49.1431C259.348 49.1218 259.403 49.0805 259.44 49.0253C259.478 48.9702 259.496 48.9043 259.492 48.8378C259.489 48.7962 259.479 48.7554 259.464 48.7168V48.6131C259.343 47.6741 259.037 46.2626 259.037 46.2626C259.406 46.3836 261.273 46.9021 261.169 46.4182C260.316 42.3855 259.366 37.9381 257.666 34.1301C257.655 34.1051 257.635 34.0849 257.609 34.0734C257.584 34.062 257.556 34.0599 257.53 34.0675C257.503 34.0752 257.48 34.0922 257.465 34.1153C257.45 34.1384 257.444 34.1662 257.447 34.1935C258.116 38.0821 259.464 41.8267 260.201 45.7154C259.537 45.5206 258.848 45.4216 258.156 45.4216C258.029 45.4792 258.795 48.1349 258.813 48.5612C258.816 48.5764 258.816 48.5922 258.813 48.6073C257.269 49.0452 256.013 48.7514 254.325 47.9276C254.198 47.8699 254.118 47.9506 254.204 48.037Z" fill="#263238"/>
<path d="M258.121 48.9117C257.712 49.6573 257.116 50.2844 256.393 50.7321C255.989 50.9621 255.525 51.0626 255.062 51.0202C254.054 50.9107 253.91 50.0235 253.956 49.2343C253.994 48.8147 254.081 48.401 254.215 48.0015C255.387 48.7128 256.756 49.0317 258.121 48.9117Z" fill="#263238"/>
<path d="M256.387 50.7502C255.984 50.9801 255.519 51.0807 255.056 51.0383C254.048 50.9288 253.904 50.0416 253.95 49.2524C255.028 49.1832 256.145 49.7363 256.387 50.7502Z" fill="#FF99BA"/>
<path opacity="0.2" d="M240.815 35.5638C240.107 37.3497 238.649 41.5436 237.82 41.8374C237.031 36.0074 237.002 30.7189 238.448 27.4697C239.046 26.1277 239.885 24.9072 240.925 23.8691C241.046 25.4303 241.57 33.6973 240.815 35.5638Z" fill="#263238"/>
<path d="M256.398 27.2284C255.905 28.0833 255.201 28.7972 254.352 29.3016C253.504 29.806 252.54 30.084 251.554 30.1088C250.549 30.1351 249.555 29.9044 248.664 29.4386C247.774 28.9728 247.018 28.2874 246.467 27.4473C246.464 27.442 246.46 27.4373 246.455 27.4336C246.45 27.4299 246.444 27.4271 246.439 27.4255C246.433 27.4239 246.427 27.4235 246.42 27.4243C246.414 27.425 246.409 27.427 246.403 27.43C246.398 27.433 246.393 27.4371 246.39 27.4419C246.386 27.4467 246.383 27.4522 246.382 27.4581C246.38 27.464 246.379 27.4701 246.38 27.4762C246.381 27.4822 246.383 27.4881 246.386 27.4934C246.887 28.431 247.635 29.2138 248.549 29.757C249.463 30.3003 250.508 30.5833 251.571 30.5755C252.612 30.5167 253.62 30.185 254.492 29.6137C255.365 29.0424 256.072 28.2515 256.543 27.3206C256.555 27.3015 256.559 27.2783 256.554 27.2561C256.549 27.234 256.536 27.2147 256.517 27.2025C256.497 27.1902 256.474 27.1861 256.452 27.191C256.43 27.1958 256.411 27.2093 256.398 27.2284Z" fill="#263238"/>
<path d="M268.416 17.9591C267.586 16.4283 266.241 15.2405 264.62 14.6062C262.373 13.719 260.12 14.3124 257.891 14.9519C257.879 14.9519 257.867 14.9567 257.858 14.9654C257.85 14.974 257.845 14.9857 257.845 14.998C257.845 15.0102 257.85 15.0219 257.858 15.0306C257.867 15.0392 257.879 15.0441 257.891 15.0441C259.786 14.5083 261.745 14.0762 263.681 14.6638C265.283 15.1431 266.67 16.1605 267.609 17.5443C268.525 18.9772 268.895 20.6919 268.651 22.3749C268.406 24.0579 267.564 25.5967 266.279 26.7099C265.521 27.3317 264.644 27.7919 263.702 28.0624C262.76 28.3329 261.772 28.4078 260.8 28.2826C260.725 28.2826 260.691 28.3863 260.771 28.3979C262.095 28.6224 263.454 28.4735 264.698 27.9678C265.941 27.4622 267.019 26.6199 267.81 25.5356C268.601 24.4513 269.074 23.1678 269.176 21.8294C269.278 20.491 269.005 19.1507 268.387 17.9591H268.416Z" fill="#263238"/>
<path d="M237.342 32.7642C237.342 32.7642 233.176 27.4123 235.193 23.5467C236.345 21.3518 241.305 20.7469 241.305 20.7469C241.305 20.7469 242.457 18.2063 246.38 16.5587C250.304 14.9111 255.598 15.8789 255.598 15.8789C255.598 15.8789 259.118 12.9524 263.15 14.4041C268.773 16.432 269.487 24.3302 264.787 27.7291C261.48 30.1199 256.018 27.781 256.018 27.781C255.558 27.925 251.237 31.6811 246.836 28.0114C246.836 28.0114 244.33 31.1684 241.34 29.7858C241.057 30.6309 240.522 31.3692 239.807 31.9016C239.093 32.434 238.232 32.735 237.342 32.7642Z" fill="#263238"/>
<path d="M241.616 43.8369C241.616 43.8369 237.474 38.076 234.858 39.5681C232.243 41.0602 235.434 49.4308 238.522 50.5138C238.91 50.6844 239.328 50.7749 239.752 50.7799C240.175 50.7849 240.596 50.7043 240.987 50.5429C241.379 50.3815 241.734 50.1426 242.031 49.8406C242.328 49.5387 242.561 49.1798 242.716 48.7856L241.616 43.8369Z" fill="#AD6359"/>
<path d="M235.827 41.9531C235.775 41.9531 235.769 42.0165 235.827 42.0338C238.01 42.8864 239.18 44.8797 240.009 46.9536C239.352 46.1586 238.471 45.7323 237.405 46.5158C237.348 46.5561 237.405 46.6425 237.463 46.631C237.842 46.51 238.25 46.5087 238.63 46.6272C239.01 46.7457 239.345 46.9783 239.589 47.2935C239.998 47.8297 240.348 48.4092 240.631 49.0218C240.735 49.2119 241.081 49.1024 241.006 48.8835V48.8317C241.006 46.0319 238.799 42.1893 235.827 41.9531Z" fill="#263238"/>
<path d="M238.165 39.8046C238.165 39.8046 235.924 30.8751 237.67 25.4023C239.611 19.3187 246.933 13.3619 255.586 15.891C255.586 15.891 245.983 17.1296 241.316 25.1545C239.173 28.8415 241.23 39.4877 241.23 39.4877L238.165 39.8046Z" fill="#C7C7C7"/>
<path d="M247.464 42.8116C248.339 47.4204 245.787 51.7641 241.755 52.5361C237.722 53.308 233.735 50.2317 232.854 45.623C231.973 41.0142 234.53 36.6705 238.563 35.8985C242.596 35.1266 246.582 38.2144 247.464 42.8116Z" fill="#C7C7C7"/>
<path d="M245.286 42.961C246.075 47.0916 243.777 51.0263 240.153 51.7003C236.529 52.3743 232.946 49.5976 232.157 45.4727C231.368 41.3479 233.661 37.4075 237.284 36.7334C240.908 36.0594 244.491 38.8246 245.286 42.961Z" fill="#455A64"/>
<path d="M16.6982 144.427H87.3617L73.2705 62.4668H20.4313L16.6982 144.427Z" fill="#DBDBDB"/>
<path d="M16.6982 144.427H22.8912L26.3708 62.4668H20.4313L16.6982 144.427Z" fill="#A6A6A6"/>
<path d="M58.5797 26.7205C52.018 33.2476 50.1341 44.0032 50.1341 44.0032C50.1341 44.0032 43.8432 54.828 45.6003 60.7099C46.0651 62.3776 46.9274 63.9078 48.1134 65.169C49.2994 66.4303 50.7737 67.385 52.4097 67.9514L51.7875 64.7022C51.7875 64.7022 53.896 68.8789 60.9416 70.5611C67.9872 72.2433 77.3084 70.0772 82.1591 67.623C85.0341 66.1837 87.4872 64.0243 89.2796 61.3551L87.4649 66.0791C87.4649 66.0791 94.3031 65.8371 98.3646 58.5611C102.426 51.285 90.7601 40.829 89.7693 38.5764C88.7784 36.3239 87.5225 19.9111 70.257 22.7397C70.2801 22.6994 63.1193 22.2269 58.5797 26.7205Z" fill="#263238"/>
<path d="M49.9384 67.4845C48.141 66.1422 46.3666 64.6041 45.3758 62.703C44.2953 60.7325 43.9116 58.455 44.2869 56.2392C44.7651 53.5835 46.165 51.2388 47.5246 48.9517C48.8842 46.6646 50.5203 44.3429 51.8856 41.9406C51.9605 41.8081 51.7589 41.6987 51.6667 41.8024C50.1326 43.6039 48.7016 45.4908 47.3806 47.4538C46.029 49.2488 44.8921 51.1958 43.9931 53.2551C43.1529 55.1512 42.8768 57.2493 43.1981 59.2983C43.538 60.9637 44.2774 62.5216 45.3527 63.8379C46.6259 65.4221 48.2332 66.4361 49.8462 67.6286C49.9384 67.7035 50.0363 67.5594 49.9384 67.4845Z" fill="#263238"/>
<path d="M99.8456 51.0375C97.7717 44.9943 92.3564 41.1575 89.0324 35.8863C87.2465 33.0346 85.8581 29.8776 83.5307 27.4005C83.4673 27.3313 83.3521 27.4408 83.4097 27.5099C85.3223 29.7394 86.4284 32.424 87.811 34.9991C89.2841 37.5332 91.0055 39.9146 92.9498 42.1081C96.3718 46.2099 100.468 51.0663 99.6843 56.8099C99.3214 59.46 97.7544 62.398 95.0352 63.2218C94.9315 63.2564 94.9949 63.4292 95.0986 63.3831C96.171 62.9526 97.1444 62.3081 97.9596 61.489C98.7747 60.6699 99.4145 59.6933 99.8398 58.6189C100.756 56.1752 100.758 53.4826 99.8456 51.0375Z" fill="#263238"/>
<path d="M100.093 52.6619C100.28 50.3731 99.7527 48.0826 98.5836 46.106C97.3911 44.1588 95.5188 42.7532 93.6465 41.4973C91.4862 40.0628 89.2106 38.6975 87.8395 36.4219C87.7819 36.324 87.6437 36.4219 87.6955 36.5198C89.8731 40.276 94.0325 42.0273 96.815 45.19C100.012 48.8021 100.018 54.0618 97.8174 58.1924C96.4188 60.7103 94.4449 62.862 92.0565 64.4718C92.0162 64.4718 92.0565 64.5582 92.1026 64.5294C96.1756 61.8564 99.7646 57.7431 100.093 52.6619Z" fill="#263238"/>
<path d="M73.9846 80.1936C91.469 89.7913 112.398 101.837 125.222 99.003C130.908 97.7471 156.441 64.2762 157.524 60.4049C158.451 57.0808 135.333 43.6982 132.752 46.3194C128.397 50.715 116.621 75.4639 114.893 75.8787C113.165 76.2935 98.4858 73.3151 83.2079 70.5556C68.506 67.9171 61.8464 73.534 73.9846 80.1936Z" fill="#EB9481"/>
<path d="M155.041 64.5759C157.034 62.0642 165.169 49.7473 166.661 45.8126C168.153 41.8779 171.644 30.2581 168.752 28.7949C165.86 27.3316 164.581 30.6441 164.581 30.6441C164.581 30.6441 165.278 25.4996 162.231 24.3071C159.183 23.1146 157.34 28.3397 157.34 28.3397C157.34 28.3397 157.668 23.0051 154.54 22.0027C151.412 21.0003 150.444 26.6115 150.444 26.6115C150.444 26.6115 150.974 21.7493 148.059 22.0027C144.556 22.3426 144.602 31.4218 142.621 35.6388C142.171 36.5951 132.13 54.4079 132.13 54.4079L155.041 64.5759Z" fill="#EB9481"/>
<path d="M150.513 26.1557C150.513 32.8326 149.36 35.7591 145.904 41.3242C145.835 41.4279 145.979 41.5546 146.065 41.4509C149.983 36.3122 151.953 32.8556 150.858 26.1384C150.783 25.81 150.513 25.8388 150.513 26.1557Z" fill="#263238"/>
<path d="M157.305 27.8155C156.729 34.7286 155.496 37.9317 152.264 44.0325C152.218 44.1189 152.362 44.2053 152.414 44.1189C156.083 38.4041 157.973 34.9014 157.65 27.9019C157.668 27.5851 157.333 27.4986 157.305 27.8155Z" fill="#263238"/>
<path d="M164.385 30.9493C163.331 37.6205 162.144 41.1692 158.249 46.6881C158.239 46.7006 158.232 46.715 158.227 46.7304C158.222 46.7459 158.221 46.7621 158.222 46.7781C158.224 46.7942 158.229 46.8098 158.236 46.824C158.244 46.8382 158.254 46.8508 158.267 46.861C158.279 46.8712 158.294 46.8788 158.309 46.8835C158.324 46.8882 158.341 46.8897 158.357 46.8881C158.373 46.8865 158.388 46.8818 158.403 46.8741C158.417 46.8665 158.429 46.8562 158.44 46.8437C162.962 41.6012 164.477 37.1884 164.586 31.0012C164.581 30.5864 164.454 30.5288 164.385 30.9493Z" fill="#263238"/>
<path d="M127.181 56.4238C127.181 56.4238 126.691 48.0762 127.291 44.3604C127.89 40.6446 135.2 27.6134 138.081 29.0306C141.831 30.8683 139.089 39.2216 137.211 43.1391C137.211 43.1391 145.887 47.3676 145.219 53.791C144.55 60.2144 127.181 56.4238 127.181 56.4238Z" fill="#EB9481"/>
<path d="M138.968 29.8723C141.18 34.0144 138.392 38.9976 136.848 42.9323C136.823 42.9892 136.812 43.0513 136.816 43.1134C136.82 43.1755 136.839 43.2356 136.871 43.2888C136.903 43.342 136.948 43.3866 137.001 43.4188C137.054 43.451 137.114 43.4699 137.176 43.4739C140.696 45.4902 145.075 49.3615 145.449 53.6246C145.449 53.6506 145.459 53.6755 145.478 53.6939C145.496 53.7122 145.521 53.7226 145.547 53.7226C145.573 53.7226 145.598 53.7122 145.616 53.6939C145.635 53.6755 145.645 53.6506 145.645 53.6246C145.864 49.0159 141.872 44.845 137.879 42.8805C139.515 38.8479 142.102 33.7494 139.031 29.8493C138.991 29.832 138.957 29.8493 138.968 29.8723Z" fill="#263238"/>
<path d="M110.734 74.5132L89.6889 92.1532C89.6889 92.1532 76.842 85.4705 67.3538 77.7912C57.8656 70.1119 68.3735 66.3788 84.6654 69.1152C100.957 71.8517 110.734 74.5132 110.734 74.5132Z" fill="#7149C4"/>
<path d="M85.8058 78.0559C85.2095 77.242 84.5192 76.5014 83.7492 75.8494C84.6014 77.6809 85.8325 79.3106 87.3613 80.631C86.9483 79.7132 86.426 78.8485 85.8058 78.0559ZM67.3709 77.8024L67.6244 77.9982C67.7914 77.8197 67.9585 77.6296 68.1141 77.4222C67.8491 77.5431 67.6013 77.6699 67.3594 77.8254L67.3709 77.8024ZM102.599 77.9176C101.603 77.7714 100.594 77.7405 99.5917 77.8254C100.532 78.1803 101.51 78.4258 102.507 78.5571C103.502 78.708 104.511 78.7409 105.514 78.655C104.57 78.2968 103.588 78.0493 102.587 77.9176H102.599ZM95.5533 71.0967C95.5403 71.4812 95.5538 71.8662 95.5936 72.2489C95.7341 71.9031 95.8534 71.5491 95.9508 71.1889L95.5533 71.0967Z" fill="white"/>
<path d="M84.9766 88.3859C89.257 84.2726 93.8311 80.4531 98.4687 76.7316C99.7822 75.6831 101.119 74.6577 102.501 73.6725C102.542 73.6437 102.593 73.6725 102.553 73.7244C100.376 75.735 98.1115 77.6533 95.859 79.5832C93.6065 81.5131 91.3251 83.4431 89.015 85.3154C87.7073 86.3754 86.4053 87.4354 85.0803 88.4666C84.9996 88.5069 84.9248 88.4378 84.9766 88.3859Z" fill="#263238"/>
<path d="M98.6297 84.6581L89.683 92.1473C89.683 92.1473 76.8362 85.4704 67.348 77.7911C63.9778 75.0662 63.131 72.8425 64.1622 71.2236L98.6297 84.6581Z" fill="#263238"/>
<path d="M94.2977 144.359H27.2349C27.2349 144.359 41.8042 88.0919 55.2905 72.2494C55.5901 71.8865 55.9012 71.5408 56.2123 71.2182C56.2757 71.1433 56.3333 71.0915 56.3966 71.0281C57.4406 69.9128 58.6562 68.9715 59.9972 68.2398C60.2334 68.1131 60.4696 67.9921 60.7173 67.8884C65.9022 65.4976 71.3981 67.4794 75.3558 70.8668C76.6117 71.9383 90.8296 90.4539 92.0625 97.488C93.1513 103.716 88.9458 110.404 88.9458 110.404L94.2977 144.359Z" fill="#7149C4"/>
<path d="M78.8991 107.996C76.0437 108.274 73.213 108.765 70.4306 109.465C69.048 109.834 67.6999 110.26 66.3461 110.715C65.6721 110.945 64.998 111.153 64.3182 111.354C63.6105 111.585 62.8773 111.728 62.1349 111.781C62.1211 111.781 62.1079 111.786 62.0982 111.796C62.0885 111.806 62.083 111.819 62.083 111.833C62.083 111.846 62.0885 111.86 62.0982 111.869C62.1079 111.879 62.1211 111.884 62.1349 111.884C62.8382 111.914 63.5427 111.895 64.2434 111.827C64.9179 111.742 65.5859 111.612 66.2424 111.435C67.6481 111.072 69.0307 110.652 70.4306 110.283C73.2534 109.534 76.0705 108.785 78.9395 108.238C78.9715 108.232 79.0002 108.215 79.0191 108.188C79.038 108.162 79.0456 108.129 79.0403 108.097C79.0349 108.065 79.017 108.036 78.9906 108.017C78.9641 107.998 78.9312 107.99 78.8991 107.996Z" fill="#263238"/>
<path d="M85.9849 110.467C83.6282 110.24 81.2605 110.146 78.8932 110.185C77.741 110.213 76.537 110.306 75.356 110.427C74.7799 110.49 74.2038 110.559 73.6738 110.634C73.1438 110.709 72.4525 110.882 71.8361 110.957C71.7727 110.957 71.7727 111.066 71.8361 111.06C72.4122 111.008 73.0171 111.06 73.6047 111.031L75.3733 110.968C76.5255 110.934 77.7295 110.905 78.9105 110.853C81.2725 110.755 83.6287 110.68 85.9907 110.657C86.1174 110.663 86.1059 110.478 85.9849 110.467Z" fill="#263238"/>
<path d="M48.9186 85.4765C48.6018 85.0732 48.2792 84.6757 47.9277 84.3243L47.68 84.8428C47.9105 85.1999 48.1582 85.5514 48.4117 85.8913C49.0085 86.6995 49.6988 87.4344 50.4683 88.0804C50.0478 87.1587 49.5282 86.2856 48.9186 85.4765ZM56.7016 70.717C56.5843 71.6167 56.565 72.5265 56.644 73.4304C57.0019 72.4857 57.2437 71.5011 57.3641 70.4981C57.3641 70.3483 57.4045 70.1928 57.4217 70.043C57.1798 70.2561 56.9378 70.4808 56.7016 70.717ZM77.055 89.463C76.6962 90.4066 76.4487 91.3887 76.3176 92.3896C76.1724 93.3871 76.1396 94.3977 76.2196 95.4025C76.5814 94.4607 76.8252 93.4777 76.9455 92.476C77.1036 91.4798 77.1404 90.4681 77.055 89.463ZM64.2369 121.909C63.8819 122.848 63.6383 123.827 63.511 124.824C63.3649 125.821 63.334 126.832 63.4189 127.837C64.1036 125.94 64.3823 123.92 64.2369 121.909ZM42.4491 97.4131C42.0974 98.36 41.8538 99.3437 41.7232 100.345C41.5766 101.341 41.5457 102.35 41.6311 103.353C41.9836 102.408 42.2253 101.426 42.3512 100.426C42.5022 99.4291 42.535 98.4178 42.4491 97.4131ZM60.4808 93.2998C59.4853 93.1536 58.4762 93.1227 57.4736 93.2076C58.414 93.5625 59.3921 93.808 60.3886 93.9393C61.3837 94.0902 62.3931 94.1231 63.3958 94.0372C62.4586 93.6724 61.4824 93.4172 60.4865 93.2768L60.4808 93.2998ZM84.6075 120.952C83.6101 120.806 82.5991 120.775 81.5946 120.86C83.4915 121.545 85.5111 121.823 87.5225 121.678C86.5841 121.322 85.608 121.075 84.6133 120.941L84.6075 120.952ZM39.5687 118.296C38.5902 118.155 37.5993 118.12 36.6133 118.193H36.5557H36.6075C37.5381 118.536 38.5044 118.774 39.488 118.901C40.4835 119.047 41.4926 119.078 42.4952 118.993C41.5499 118.649 40.5678 118.415 39.5687 118.296ZM64.8706 142.083C63.8751 141.937 62.866 141.906 61.8634 141.991C63.762 142.677 65.7841 142.954 67.7972 142.803C66.8446 142.452 65.855 142.21 64.8476 142.083H64.8706ZM37.656 139.168C36.6586 139.022 35.6476 138.991 34.6431 139.076C35.5841 139.427 36.5621 139.668 37.5581 139.796C38.5548 139.951 39.5668 139.982 40.5711 139.888C39.6227 139.536 38.6368 139.294 37.633 139.168H37.656ZM65.5274 78.9782C64.7158 79.5817 63.9756 80.2755 63.3209 81.0463C64.2401 80.628 65.1097 80.1082 65.9133 79.4966C66.7233 78.8953 67.4583 78.199 68.1025 77.4227C67.1895 77.8449 66.3259 78.3665 65.5274 78.9782ZM72.7055 109.816C71.8958 110.412 71.1608 111.102 70.5163 111.873C71.4328 111.457 72.2971 110.935 73.0914 110.318C73.9024 109.724 74.6376 109.033 75.2806 108.261C74.3647 108.682 73.5006 109.208 72.7055 109.828V109.816ZM47.536 128.666C46.7218 129.26 45.9845 129.953 45.3411 130.728C46.2541 130.306 47.1177 129.785 47.9162 129.173C48.7261 128.572 49.4662 127.882 50.1227 127.116C49.1978 127.525 48.3286 128.05 47.536 128.678V128.666ZM89.3372 101.549C88.741 100.736 88.0506 99.9949 87.2806 99.343C88.1328 101.174 89.3639 102.804 90.8927 104.125C90.4789 103.211 89.9566 102.35 89.3372 101.561V101.549ZM80.7592 136.443C80.1582 135.633 79.4683 134.893 78.7026 134.237C79.1064 135.162 79.6272 136.031 80.2523 136.824C80.8474 137.635 81.5379 138.372 82.3089 139.018C81.8888 138.106 81.3691 137.242 80.7592 136.443ZM55.5034 108.998C54.9054 108.186 54.2153 107.445 53.4467 106.792C53.8552 107.716 54.3777 108.585 55.0022 109.379C55.5956 110.191 56.2863 110.928 57.0588 111.573C56.6393 110.659 56.1175 109.795 55.5034 108.998Z" fill="white"/>
<path d="M53.9193 72.687C41.0206 83.0855 7.98746 124.293 15.4363 133.816C22.8852 143.339 72.3945 139.001 86.768 134.496C91.0426 133.159 79.3825 106.031 74.7623 104.781C70.914 103.738 49.5755 110.047 49.1607 108.814C48.6941 107.42 54.432 99.7057 61.7253 82.9933C70.1362 63.7173 59.6168 68.0955 53.9193 72.687Z" fill="#EB9481"/>
<path d="M98.0654 102.517C107.922 103.669 110.279 105.461 119.11 102.004C124.906 99.74 128.84 102.465 124.6 107.356C117.687 115.358 104.644 116.573 100.007 115.675L98.0654 102.517Z" fill="#EB9481"/>
<path d="M70.4185 105.127C70.4185 105.127 82.6489 101.964 93.272 102.137C100.623 102.258 116.581 104.303 127.411 123.378C129.981 127.9 130.436 136.173 123.551 130.291C118.666 126.126 116.828 122.007 113.545 120.1C113.545 120.1 112.871 130.683 108.239 133.085C104.188 135.179 99.9928 136.983 95.6858 138.483C95.2296 137.758 94.8216 137.003 94.4645 136.225C94.4645 136.225 89.9249 138.057 82.9427 135.516L70.4185 105.127Z" fill="#EB9481"/>
<path d="M100.272 103.375C103.153 105.956 109.098 111.521 112.37 117.777C116.034 124.725 121.219 139.093 116.063 141.748C112.284 143.696 109.818 138.378 109.818 138.378C109.818 138.378 110.711 144.773 106.938 145.781C103.481 146.703 101.816 142.474 101.816 142.474C101.816 142.474 101.689 146.444 98.1867 146.691C93.9697 146.979 94.926 138.626 90.3979 135.221C89.3782 134.455 100.272 103.375 100.272 103.375Z" fill="#EB9481"/>
<path d="M104.408 120.456C106.712 123.336 110.232 131.171 109.933 138.274C109.933 138.436 109.8 138.516 109.777 138.367C108.697 132.216 106.872 126.219 104.345 120.508C104.338 120.499 104.335 120.489 104.336 120.478C104.337 120.467 104.342 120.457 104.35 120.45C104.359 120.443 104.37 120.44 104.38 120.441C104.391 120.442 104.401 120.448 104.408 120.456Z" fill="#263238"/>
<path d="M97.5008 124.328C99.229 127.007 102.507 135.274 101.954 142.446C101.954 142.607 101.81 142.677 101.793 142.527C101.031 136.325 99.5682 130.229 97.4316 124.357C97.4315 124.349 97.4338 124.341 97.4382 124.334C97.4427 124.327 97.449 124.322 97.4565 124.319C97.4639 124.316 97.4721 124.315 97.48 124.317C97.4879 124.318 97.4951 124.322 97.5008 124.328Z" fill="#263238"/>
<path d="M113.562 120.053C116.443 121.782 118.05 123.815 120.193 126.31C121.241 127.559 122.356 128.749 123.535 129.876C124.618 130.884 126.213 132.399 127.838 131.679C128.742 131.276 128.99 130.193 129.065 129.294C129.136 128.283 128.989 127.27 128.633 126.321C128.633 126.275 128.702 126.241 128.719 126.292C129.073 127.129 129.306 128.011 129.411 128.914C129.548 129.762 129.425 130.631 129.059 131.408C128.161 132.998 126.087 132.699 124.785 131.863C124.015 131.33 123.299 130.722 122.647 130.048C122.008 129.421 121.397 128.764 120.804 128.096C119.588 126.713 118.453 125.267 117.255 123.879C116.081 122.554 114.822 121.308 113.488 120.145C113.436 120.099 113.505 120.019 113.562 120.053Z" fill="#263238"/>
<path d="M117.226 132.647C116.886 130.671 114.444 122.179 113.476 120.111C113.47 120.1 113.468 120.088 113.471 120.076C113.475 120.064 113.482 120.054 113.493 120.048C113.504 120.042 113.517 120.04 113.528 120.043C113.54 120.046 113.55 120.054 113.557 120.065C115.383 122.986 117.687 130.077 118.09 132.261C118.494 134.444 118.88 137.146 118.321 139.295C117.48 142.532 115.175 142.59 114.34 142.544C113.353 142.472 112.42 142.065 111.696 141.392C110.87 140.531 110.228 139.512 109.806 138.396C109.806 138.344 109.858 138.298 109.887 138.35C110.682 139.917 112.22 141.663 114.04 141.887C114.444 141.95 114.855 141.931 115.251 141.832C115.647 141.733 116.019 141.556 116.345 141.311C117.029 140.657 117.452 139.777 117.537 138.834C117.789 136.769 117.683 134.676 117.226 132.647Z" fill="#263238"/>
<path d="M101.954 142.446C102.305 142.947 102.887 144.531 104.287 145.2C104.774 145.477 105.321 145.632 105.881 145.651C106.441 145.67 106.997 145.553 107.502 145.309C108.464 144.712 109.156 143.764 109.432 142.665C109.665 141.259 109.79 139.838 109.806 138.413C109.806 138.344 109.893 138.339 109.898 138.413C110.078 139.959 110.023 141.522 109.737 143.051C109.602 143.65 109.348 144.216 108.991 144.716C108.634 145.215 108.18 145.638 107.657 145.96C107.103 146.263 106.477 146.406 105.846 146.375C105.216 146.343 104.607 146.138 104.086 145.782C103.561 145.419 102.04 143.777 101.781 142.486C101.787 142.446 101.937 142.423 101.954 142.446Z" fill="#263238"/>
<path d="M90.841 134.715C91.2575 135.176 91.619 135.685 91.9183 136.23C92.2582 136.806 92.5808 137.353 92.8861 137.929C93.4929 139.094 93.9775 140.318 94.3321 141.582C94.7008 142.849 94.9888 144.232 95.8587 145.274C96.2659 145.79 96.825 146.164 97.4568 146.344C98.0886 146.524 98.761 146.501 99.3787 146.277C100.033 146.017 100.576 145.539 100.917 144.923C101.312 144.259 101.576 143.526 101.695 142.763C101.692 142.756 101.691 142.748 101.692 142.741C101.693 142.734 101.696 142.726 101.7 142.72C101.704 142.714 101.71 142.709 101.716 142.706C101.723 142.702 101.73 142.701 101.738 142.701C101.745 142.701 101.753 142.702 101.759 142.706C101.766 142.709 101.771 142.714 101.776 142.72C101.78 142.726 101.783 142.734 101.783 142.741C101.784 142.748 101.784 142.756 101.781 142.763C101.732 143.455 101.612 144.14 101.424 144.808C101.206 145.408 100.835 145.94 100.346 146.352C99.8349 146.743 99.2255 146.985 98.5852 147.052C97.945 147.119 97.2986 147.008 96.7171 146.732C95.4267 146.156 94.7008 144.854 94.2514 143.563C93.7502 142.129 93.4161 140.648 92.8458 139.231C92.552 138.482 92.2697 137.733 91.9125 137.013C91.5553 136.293 91.0599 135.544 90.7603 134.772C90.7258 134.726 90.7949 134.663 90.841 134.715Z" fill="#263238"/>
<path d="M86.342 136.5C88.1633 136.764 90.0054 136.854 91.8437 136.771C91.9013 136.771 91.9359 136.938 91.8783 136.95C90.9669 137.121 90.0398 137.192 89.113 137.163C88.1735 137.123 87.2452 136.943 86.3593 136.627C86.2844 136.587 86.2844 136.489 86.342 136.5Z" fill="#263238"/>
<path d="M29.7752 114.983C32.8548 113.497 36.0373 112.234 39.298 111.204C42.5246 110.195 45.8211 109.425 49.1607 108.9C51.0675 108.583 52.9802 108.358 54.9216 108.122C54.9792 108.122 54.9907 108.203 54.9216 108.208C51.566 108.752 48.2442 109.486 44.9725 110.409C41.7156 111.296 38.478 112.243 35.2596 113.249C33.4391 113.825 31.6417 114.471 29.8386 115.099C29.7752 115.145 29.7176 115.024 29.7752 114.983Z" fill="#263238"/>
<path d="M26.9697 97.7067L54.2707 100.674C54.2707 100.674 61.2357 87.9995 64.8593 76.3221C68.4829 64.6448 58.1939 66.9145 46.1709 78.2348C34.1478 89.555 26.9697 97.7067 26.9697 97.7067Z" fill="#7149C4"/>
<path d="M26.9697 97.7067L54.2707 100.674C54.2707 100.674 61.2357 87.9995 64.8593 76.3221C68.4829 64.6448 58.1939 66.9145 46.1709 78.2348C34.1478 89.555 26.9697 97.7067 26.9697 97.7067Z" fill="#7149C4"/>
<path d="M56.7479 70.3364C56.7507 70.3651 56.7507 70.3941 56.7479 70.4228C56.6017 71.4203 56.5708 72.4312 56.6558 73.4358C57.0137 72.4911 57.2555 71.5064 57.3759 70.5035C57.3759 70.3306 57.422 70.1636 57.4392 69.9907L56.7479 70.3364ZM42.4493 97.4127C42.1993 98.0412 42.0065 98.691 41.8732 99.3541L42.4493 99.4117C42.5126 98.7469 42.5126 98.0775 42.4493 97.4127ZM32.9784 91.2658L32.7134 91.5423C33.0129 91.5423 33.2895 91.5423 33.6178 91.4905C33.3989 91.4041 33.1915 91.3292 32.9784 91.2658ZM57.4796 93.1842C57.6409 93.2476 57.8079 93.3109 57.975 93.3628C58.0048 93.2876 58.0395 93.2145 58.0787 93.1439C57.8828 93.1496 57.6812 93.1611 57.4796 93.1842ZM48.9188 85.4761C48.3178 84.6661 47.628 83.926 46.8622 83.2696C47.2673 84.1957 47.788 85.0668 48.4119 85.8621C49.0087 86.6703 49.699 87.4052 50.4685 88.0512C50.0462 87.1395 49.5266 86.2762 48.9188 85.4761Z" fill="white"/>
<path d="M53.1649 100.42C53.3147 100.42 54.3171 100.42 54.3171 100.42C54.4381 100.068 56.7885 94.6587 57.3646 93.5065C58.5514 91.1388 59.8764 88.8344 61.1668 86.5243C61.2072 86.4494 61.3224 86.5243 61.282 86.5762C60.3718 88.5925 59.4962 90.6088 58.5686 92.6366C58.7991 92.3659 59.0295 92.0951 59.2542 91.8186C59.7093 91.2425 60.1241 90.6664 60.5562 90.0558C60.5965 90.0039 60.6771 90.0557 60.6483 90.1191C60.2361 90.9524 59.7149 91.7273 59.0986 92.4235C58.837 92.7293 58.554 93.0161 58.2518 93.2819C58.1769 93.4489 58.102 93.6218 58.0214 93.7831C57.4453 94.9353 54.6051 100.742 54.5014 100.736L53.1879 100.575C53.09 100.598 53.09 100.414 53.1649 100.42Z" fill="#263238"/>
<path d="M32.114 93.0691C38.0363 93.4666 43.9412 94.2789 49.8116 95.2006C51.4784 95.4656 53.1337 95.7671 54.7775 96.1051C54.8236 96.1051 54.8236 96.1857 54.7775 96.18C51.8279 95.9207 48.8841 95.5405 45.9402 95.1776C42.9964 94.8146 40.0295 94.4229 37.0857 93.9563C35.4266 93.7028 33.7617 93.4493 32.1083 93.167C32.0391 93.1728 32.0391 93.0633 32.114 93.0691Z" fill="#263238"/>
<path d="M63.4941 68.6653C63.5978 69.8636 68.0568 78.1939 73.3972 78.7066C75.1254 78.8679 76.4562 69.4143 76.4562 69.4143L76.7097 68.7402L80.2987 59.2808L69.8715 50.265L68.3564 49.0552C68.3564 49.0552 67.5441 51.7052 66.5705 55.0177C66.5244 55.1733 66.4725 55.3288 66.4264 55.4901C66.3804 55.6514 66.3112 55.8531 66.2594 56.0259C66.1096 56.5213 65.9541 57.0225 65.8158 57.5295C65.7063 57.9155 65.5969 58.2899 65.4932 58.6817C65.3895 59.0734 65.2858 59.4882 65.1706 59.8915C64.4127 62.7745 63.8526 65.706 63.4941 68.6653Z" fill="#EB9481"/>
<path d="M66.5703 55.0177C67.1641 57.9035 68.3785 60.6256 70.1293 62.9951C71.8801 65.3647 74.1254 67.3251 76.7095 68.7402L80.2986 59.2808L69.8713 50.265L68.3562 49.0552C68.3562 49.0552 67.5439 51.7052 66.5703 55.0177Z" fill="#263238"/>
<path d="M83.4556 44.7524C84.3716 48.7851 88.001 51.4408 91.5612 50.6401C95.1215 49.8393 97.2588 45.8931 96.3428 41.8374C95.4268 37.7817 91.7974 35.1432 88.2372 35.9497C84.6769 36.7563 82.5396 40.691 83.4556 44.7524Z" fill="#455A64"/>
<path d="M81.4221 45.4783C82.4476 49.9891 86.4802 52.9214 90.4437 52.0285C94.4072 51.1355 96.7807 46.7515 95.761 42.2349C94.7414 37.7183 90.703 34.7918 86.7452 35.6847C82.7875 36.5777 80.4024 40.956 81.4221 45.4783Z" fill="#C7C7C7"/>
<path d="M93.0707 39.7059C97.9099 56.7871 88.2257 61.5974 84.5388 62.6574C81.1917 63.6022 69.6814 66.3905 63.1024 49.897C56.5234 33.4035 62.9353 25.753 70.4706 23.1894C78.0059 20.6258 88.2315 22.619 93.0707 39.7059Z" fill="#EB9481"/>
<path d="M87.1256 37.5569C86.7198 37.5971 86.3121 37.6144 85.9043 37.6087C85.4756 37.6906 85.0318 37.6277 84.6427 37.4301C84.5319 37.3445 84.4525 37.2245 84.4171 37.089C84.3817 36.9535 84.3921 36.8101 84.4468 36.6812C84.5938 36.4438 84.8017 36.2502 85.0489 36.1205C85.2962 35.9908 85.5736 35.9298 85.8525 35.9438C86.42 35.8807 86.9907 36.0306 87.454 36.3643C87.554 36.448 87.6278 36.5586 87.6667 36.6831C87.7055 36.8075 87.7078 36.9405 87.6731 37.0662C87.6385 37.1918 87.5685 37.3049 87.4715 37.3919C87.3744 37.4789 87.2543 37.5362 87.1256 37.5569Z" fill="#263238"/>
<path d="M75.8625 41.5319C76.254 41.4106 76.6386 41.2683 77.0147 41.1056C77.4412 41.0114 77.8254 40.7808 78.1093 40.4488C78.1765 40.3261 78.2017 40.1847 78.1809 40.0463C78.1601 39.9079 78.0944 39.7801 77.994 39.6826C77.7655 39.5218 77.4983 39.4248 77.2199 39.4015C76.9414 39.3782 76.6618 39.4295 76.4098 39.5501C75.8634 39.7145 75.3974 40.0758 75.1021 40.5641C75.0414 40.6792 75.0154 40.8095 75.0272 40.9391C75.039 41.0688 75.088 41.1922 75.1684 41.2946C75.2489 41.3969 75.3572 41.4738 75.4804 41.5159C75.6035 41.558 75.7363 41.5636 75.8625 41.5319Z" fill="#263238"/>
<path d="M79.3195 44.5446C79.3195 44.4985 79.2446 44.6253 79.2619 44.6713C79.6306 45.8235 79.838 47.2061 78.9162 47.8917C78.8874 47.8917 78.9162 47.9666 78.945 47.9551C80.1663 47.4078 79.8437 45.5643 79.3195 44.5446Z" fill="#263238"/>
<path d="M77.9248 43.6232C76.0122 44.0149 76.9339 47.8056 78.7083 47.4427C80.4826 47.0797 79.5263 43.2948 77.9248 43.6232Z" fill="#263238"/>
<path d="M77.2278 44.0038C76.9513 44.3033 76.7151 44.7584 76.3291 44.8967C75.9431 45.035 75.4304 44.7412 75.0387 44.4301C74.9984 44.4013 74.9696 44.4301 74.9811 44.4934C75.1481 45.2193 75.609 45.8991 76.4155 45.8185C77.2221 45.7378 77.5044 44.9774 77.5044 44.1996C77.5101 44.0556 77.343 43.8885 77.2278 44.0038Z" fill="#263238"/>
<path d="M86.0537 42.4649C86.0537 42.4188 86.1632 42.4995 86.1689 42.5456C86.4109 43.7323 86.8833 45.0516 88.0412 45.1899C88.0758 45.1899 88.0873 45.2532 88.0412 45.259C86.7047 45.38 86.094 43.6229 86.0537 42.4649Z" fill="#263238"/>
<path d="M86.8084 40.9902C88.6634 40.4141 89.6889 44.1587 87.9606 44.706C86.2323 45.2533 85.2587 41.4799 86.8084 40.9902Z" fill="#263238"/>
<path d="M87.6726 41.0194C88.024 41.1346 88.4158 41.4169 88.7787 41.342C89.1416 41.2671 89.3893 40.7659 89.5449 40.2993C89.5449 40.2532 89.6025 40.2993 89.614 40.2993C89.8329 41.0136 89.8041 41.8259 89.1474 42.1543C88.4906 42.4827 87.9203 41.9642 87.5516 41.2959C87.4825 41.2038 87.5286 40.956 87.6726 41.0194Z" fill="#263238"/>
<path d="M81.9809 54.0162C82.315 54.2409 82.6722 54.5923 83.1331 54.5174C83.5738 54.4218 83.9898 54.2354 84.3544 53.9701C84.3613 53.9617 84.3712 53.9564 84.382 53.9553C84.3928 53.9542 84.4036 53.9575 84.412 53.9643C84.4204 53.9712 84.4257 53.9811 84.4268 53.9919C84.4279 54.0028 84.4246 54.0135 84.4178 54.0219C84.293 54.2883 84.0987 54.5161 83.8554 54.6813C83.6121 54.8466 83.3287 54.9432 83.0351 54.961C82.778 54.9481 82.5307 54.8583 82.3253 54.7032C82.1199 54.5481 81.9657 54.3348 81.883 54.0911C81.8426 54.0277 81.929 53.9874 81.9809 54.0162Z" fill="#263238"/>
<path d="M85.8463 48.1622C85.8463 48.1622 86.5318 49.8502 86.745 50.674C86.745 50.7547 83.9106 52.1373 82.0786 50.4436C82.0595 50.4306 82.0464 50.4105 82.0421 50.3879C82.0377 50.3652 82.0426 50.3417 82.0556 50.3226C82.0686 50.3035 82.0886 50.2903 82.1113 50.286C82.134 50.2817 82.1575 50.2866 82.1766 50.2996C83.4121 50.7496 84.76 50.788 86.0191 50.409C86.0191 50.1671 84.7402 47.5574 84.8669 47.5286C85.522 47.4209 86.1885 47.4015 86.8487 47.4709C85.5122 43.9165 83.6226 40.6039 82.3494 37.0379C82.3381 37.0115 82.3371 36.9819 82.3465 36.9548C82.356 36.9277 82.3752 36.9051 82.4004 36.8914C82.4256 36.8777 82.455 36.8739 82.4829 36.8808C82.5108 36.8876 82.5351 36.9046 82.551 36.9285C84.7805 40.264 86.4051 44.3255 87.8741 47.9606C88.07 48.4042 86.2323 48.2199 85.8463 48.1622Z" fill="#263238"/>
<path d="M86.0136 50.8068C85.7076 51.5714 85.2119 52.2454 84.5734 52.7655C84.2149 53.0345 83.7826 53.1873 83.3348 53.2033C82.3496 53.2033 82.0904 52.391 82.0558 51.6248C82.0419 51.2191 82.0748 50.8132 82.1538 50.415C83.3653 50.9553 84.7182 51.0926 86.0136 50.8068Z" fill="#263238"/>
<path d="M84.5732 52.7657C84.2147 53.0347 83.7825 53.1875 83.3346 53.2036C82.3495 53.2036 82.0902 52.3913 82.0557 51.6251C83.0638 51.4465 84.216 51.8382 84.5732 52.7657Z" fill="#FF99BA"/>
<path d="M63.9263 49.3263C67.233 49.5394 67.6133 41.9753 67.6133 41.9753C67.6133 41.9753 81.4395 38.755 81.9349 27.3023C81.9349 27.3023 84.775 34.4113 92.3046 37.2456C92.3046 37.2456 91.0544 24.802 81.0189 22.9816C81.0189 22.9816 68.4716 19.26 62.1634 29.4223C55.8552 39.5846 61.7083 49.1823 63.9263 49.3263Z" fill="#263238"/>
<path d="M81.9346 26.4556C82.2077 28.2029 82.1036 29.9885 81.6293 31.6922C81.1817 33.4237 80.3772 35.0426 79.2673 36.445C78.9952 36.7976 78.7008 37.1324 78.3859 37.4474L77.925 37.9371C77.7637 38.0869 77.5909 38.2251 77.4181 38.3691C77.0724 38.6457 76.7383 38.9452 76.3811 39.2045C76.0239 39.4637 75.6322 39.6769 75.2289 39.9073C75.0388 40.0168 74.8544 40.1377 74.6528 40.2414L74.0767 40.518L72.8727 41.0653C72.0431 41.3533 71.202 41.5953 70.3667 41.8257C71.1444 41.4282 71.9509 41.1113 72.7171 40.7138L73.8405 40.0801L74.4166 39.7633C74.5952 39.6481 74.7623 39.5156 74.9351 39.3888C75.2808 39.1353 75.6264 38.8876 75.9778 38.6457C76.3292 38.4037 76.6115 38.0696 76.9284 37.8103L77.4065 37.3898L77.8328 36.9174C78.1259 36.615 78.401 36.2957 78.6567 35.9611C79.7036 34.6254 80.5159 33.1215 81.059 31.5137C81.3369 30.7064 81.5488 29.878 81.6927 29.0365C81.8459 28.1845 81.9268 27.3211 81.9346 26.4556Z" fill="#263238"/>
<path d="M66.392 49.1477C66.392 49.1477 61.5413 44.4295 59.3348 46.2672C57.1284 48.1049 61.5009 55.4444 64.6061 55.9628C64.9996 56.0574 65.4081 56.0715 65.8072 56.0042C66.2062 55.9368 66.5875 55.7895 66.9282 55.571C67.2688 55.3525 67.5618 55.0674 67.7894 54.7328C68.017 54.3982 68.1746 54.021 68.2527 53.6239L66.392 49.1477Z" fill="#EB9481"/>
<path d="M60.6424 48.3356C60.6317 48.3356 60.6214 48.3399 60.6139 48.3475C60.6063 48.355 60.6021 48.3653 60.6021 48.376C60.6021 48.3867 60.6063 48.3969 60.6139 48.4045C60.6214 48.4121 60.6317 48.4163 60.6424 48.4163C62.8373 48.8484 64.266 50.5305 65.3951 52.3395C64.6462 51.7058 63.7418 51.4523 62.8719 52.3395C62.8258 52.3913 62.8719 52.4605 62.9467 52.4374C63.2832 52.2561 63.6674 52.1832 64.0469 52.2286C64.4264 52.2739 64.7825 52.4354 65.0668 52.6909C65.5397 53.1199 65.9647 53.5989 66.3342 54.1196C66.4609 54.2867 66.772 54.1196 66.6625 53.9295L66.6337 53.8834C66.1844 51.3256 63.471 48.0649 60.6424 48.3356Z" fill="#263238"/>
<path d="M63.0734 46.7452C63.0734 46.7452 59.9279 38.3631 61.0167 32.8902C62.2265 26.7952 69.7791 19.8417 78.4147 22.4457C78.4147 22.4457 68.143 23.9838 64.5136 32.2392C62.8429 36.0414 65.9999 46.1058 65.9999 46.1058L63.0734 46.7452Z" fill="#C7C7C7"/>
<path d="M67.9246 58.6915C71.7369 57.504 73.7299 53.0175 72.3759 48.6705C71.022 44.3235 66.8339 41.7622 63.0215 42.9496C59.2092 44.137 57.2162 48.6235 58.5702 52.9705C59.9241 57.3175 64.1122 59.8789 67.9246 58.6915Z" fill="#C7C7C7"/>
<path d="M70.2975 49.0214C71.513 52.9273 69.7214 56.9599 66.2648 58.0257C62.8083 59.0915 59.0752 56.7929 57.8539 52.8869C56.6326 48.981 58.43 44.9484 61.8865 43.8769C65.3431 42.8053 69.0819 45.1385 70.2975 49.0214Z" fill="#455A64"/>
<path d="M76.6692 68.7983L73.5007 76.7945L63.5343 66.7417L60.7402 69.9908C60.7402 69.9908 70.5338 85.9947 70.5684 85.2688L73.829 78.3557L78.5991 83.12L78.167 71.1257L76.6692 68.7983Z" fill="#EBEBEB"/>
<path d="M78.7433 77.1864C78.5993 75.2104 78.5186 73.2056 78.2882 71.2354C78.2882 71.1662 78.1672 71.1374 78.1499 71.2354C77.7639 73.148 78.3343 80.7236 78.3343 82.5383C78.1384 82.3309 73.9156 78.3443 73.8753 78.4077C73.1667 79.5023 70.7759 84.5258 70.6146 84.9809C69.0649 82.4404 62.509 72.4221 60.6828 70.0025C60.6719 69.9915 60.6577 69.9844 60.6423 69.9825C60.6269 69.9805 60.6113 69.9838 60.598 69.9918C60.5847 69.9998 60.5745 70.012 60.569 70.0265C60.5635 70.041 60.563 70.0569 60.5676 70.0717C61.9329 72.7563 70.4015 85.9776 70.5225 85.943C71.7823 83.5733 72.9206 81.141 73.9329 78.6554C74.6473 79.5253 78.9104 84.0246 78.9219 83.7308C78.9753 81.5477 78.9157 79.3633 78.7433 77.1864Z" fill="#263238"/>
<path d="M104.552 143.023H100.698V145.54H104.552V143.023Z" fill="#455A64"/>
<path d="M109.552 142.855H105.698V145.373H109.552V142.855Z" fill="#455A64"/>
<path d="M114.553 142.688H110.699V145.206H114.553V142.688Z" fill="#455A64"/>
<path d="M119.547 142.521H115.693V145.039H119.547V142.521Z" fill="#455A64"/>
<path d="M124.548 142.354H120.694V144.872H124.548V142.354Z" fill="#455A64"/>
<path d="M129.548 142.193H125.694V144.71H129.548V142.193Z" fill="#455A64"/>
<path d="M134.543 142.026H130.689V144.543H134.543V142.026Z" fill="#455A64"/>
<path d="M139.544 141.859H135.689V144.376H139.544V141.859Z" fill="#455A64"/>
<path d="M144.539 141.691H140.685V144.209H144.539V141.691Z" fill="#455A64"/>
<path d="M145.483 146.986H99.7529V143.922L145.483 142.648V146.986Z" fill="#37474F"/>
<path d="M190.119 134.911H114.627L126.633 78.7075H202.124L190.119 134.911Z" fill="#455A64"/>
<path d="M192.913 134.911H117.416L129.422 78.7075H204.919L192.913 134.911Z" fill="#37474F"/>
<path d="M167.692 103.555C167.46 104.835 166.797 105.996 165.812 106.845C164.828 107.694 163.582 108.18 162.282 108.221C161.696 108.24 161.113 108.125 160.577 107.885C160.042 107.646 159.567 107.288 159.19 106.839C158.812 106.39 158.541 105.861 158.397 105.292C158.253 104.724 158.24 104.13 158.359 103.555C158.588 102.275 159.25 101.112 160.233 100.262C161.217 99.4115 162.463 98.9247 163.763 98.883C164.35 98.8636 164.935 98.978 165.471 99.2173C166.008 99.4567 166.484 99.8148 166.862 100.265C167.24 100.715 167.512 101.244 167.655 101.814C167.799 102.384 167.812 102.98 167.692 103.555Z" fill="#263238"/>
<path d="M171.563 149.59H134.434V146.704L171.563 145.505V149.59Z" fill="#455A64"/>
<path d="M181.656 149.584H161.717L149.711 118.089H169.65L181.656 149.584Z" fill="#455A64"/>
<path d="M184.934 149.584H165.001L152.996 118.089H172.928L184.934 149.584Z" fill="#263238"/>
<path d="M98.33 150.356H60.0659C56.7995 150.356 61.5235 141.052 73.4486 137.486C85.3737 133.92 102.103 146.865 98.33 150.356Z" fill="#37474F"/>
<path d="M83.3516 150.356C83.3773 149.296 83.5518 148.245 83.87 147.234C84.1772 146.211 84.6087 145.23 85.1547 144.313C85.7021 143.39 86.388 142.557 87.1883 141.842C87.982 141.132 88.8947 140.569 89.8844 140.177C89.4754 140.511 89.0088 140.753 88.6343 141.116L88.0582 141.617L87.5167 142.193C86.809 142.934 86.1886 143.754 85.6675 144.636C85.1376 145.518 84.6829 146.443 84.3079 147.401C83.9236 148.364 83.6041 149.351 83.3516 150.356Z" fill="#263238"/>
<path d="M87.8569 141.501C90.1339 142.222 92.2881 143.285 94.2458 144.653C95.2365 145.337 96.1332 146.149 96.9131 147.067C97.7311 147.979 98.2287 149.134 98.3303 150.356C98.0131 149.23 97.4051 148.206 96.5674 147.389C95.7511 146.558 94.8581 145.806 93.9001 145.142C92.9496 144.457 91.9529 143.84 90.939 143.236C89.9251 142.631 88.9054 142.06 87.8569 141.501Z" fill="#263238"/>
<path d="M281.332 143.023H277.478V145.54H281.332V143.023Z" fill="#455A64"/>
<path d="M286.332 142.855H282.478V145.373H286.332V142.855Z" fill="#455A64"/>
<path d="M291.333 142.688H287.479V145.206H291.333V142.688Z" fill="#455A64"/>
<path d="M296.327 142.521H292.473V145.039H296.327V142.521Z" fill="#455A64"/>
<path d="M301.328 142.354H297.474V144.872H301.328V142.354Z" fill="#455A64"/>
<path d="M306.328 142.193H302.474V144.71H306.328V142.193Z" fill="#455A64"/>
<path d="M311.323 142.026H307.469V144.543H311.323V142.026Z" fill="#455A64"/>
<path d="M316.323 141.859H312.469V144.376H316.323V141.859Z" fill="#455A64"/>
<path d="M321.324 141.691H317.47V144.209H321.324V141.691Z" fill="#455A64"/>
<path d="M322.268 146.986H276.538V143.922L322.268 142.648V146.986Z" fill="#37474F"/>
<path d="M366.898 134.911H291.407L303.413 78.7075H378.904L366.898 134.911Z" fill="#455A64"/>
<path d="M369.692 134.911H294.201L306.207 78.7075H381.698L369.692 134.911Z" fill="#37474F"/>
<path d="M344.471 103.555C344.24 104.834 343.577 105.994 342.594 106.843C341.611 107.693 340.366 108.179 339.067 108.221C338.48 108.241 337.897 108.126 337.36 107.887C336.824 107.648 336.349 107.291 335.971 106.841C335.593 106.392 335.321 105.863 335.177 105.294C335.033 104.725 335.02 104.13 335.138 103.555C335.368 102.276 336.03 101.114 337.014 100.263C337.997 99.4129 339.243 98.9257 340.542 98.883C341.13 98.8636 341.714 98.978 342.251 99.2173C342.788 99.4567 343.263 99.8148 343.641 100.265C344.02 100.715 344.291 101.244 344.435 101.814C344.578 102.384 344.591 102.98 344.471 103.555Z" fill="#263238"/>
<path d="M348.342 149.59H311.213V146.704L348.342 145.505V149.59Z" fill="#455A64"/>
<path d="M358.436 149.584H338.497L326.491 118.089H346.43L358.436 149.584Z" fill="#455A64"/>
<path d="M361.719 149.584H341.781L329.775 118.089H349.713L361.719 149.584Z" fill="#263238"/>
<path d="M275.127 150.356H236.846C233.579 150.356 238.303 141.052 250.228 137.486C262.153 133.92 278.883 146.865 275.127 150.356Z" fill="#37474F"/>
<path d="M260.103 150.356C260.131 149.297 260.305 148.246 260.621 147.234C260.931 146.212 261.362 145.232 261.906 144.313C262.457 143.393 263.142 142.56 263.939 141.842C264.733 141.132 265.646 140.569 266.635 140.177C266.226 140.511 265.76 140.753 265.385 141.116L264.809 141.617L264.268 142.193C263.556 142.932 262.934 143.752 262.413 144.636C261.883 145.518 261.428 146.443 261.053 147.401C260.671 148.364 260.353 149.351 260.103 150.356Z" fill="#263238"/>
<path d="M264.636 141.501C266.913 142.222 269.067 143.285 271.025 144.653C272.016 145.339 272.915 146.15 273.698 147.067C274.514 147.973 275.015 149.119 275.127 150.333C274.808 149.206 274.198 148.183 273.358 147.366C272.542 146.535 271.649 145.782 270.691 145.119C269.746 144.434 268.744 143.817 267.73 143.212C266.716 142.608 265.69 142.06 264.636 141.501Z" fill="#263238"/>
</g>
<defs>
<filter id="filter0_d_244_260" x="0.655469" y="0.3" width="395.492" height="163.756" filterUnits="userSpaceOnUse" color-interpolation-filters="sRGB">
<feFlood flood-opacity="0" result="BackgroundImageFix"/>
<feColorMatrix in="SourceAlpha" type="matrix" values="0 0 0 0 0 0 0 0 0 0 0 0 0 0 0 0 0 0 127 0" result="hardAlpha"/>
<feOffset/>
<feGaussianBlur stdDeviation="6.85"/>
<feComposite in2="hardAlpha" operator="out"/>
<feColorMatrix type="matrix" values="0 0 0 0 0 0 0 0 0 0 0 0 0 0 0 0 0 0 0.25 0"/>
<feBlend mode="normal" in2="BackgroundImageFix" result="effect1_dropShadow_244_260"/>
<feBlend mode="normal" in="SourceGraphic" in2="effect1_dropShadow_244_260" result="shape"/>
</filter>
</defs>
</svg>
