<svg width="130" height="130" viewBox="0 0 130 130" fill="none" xmlns="http://www.w3.org/2000/svg">
<path d="M67.0983 1.21773C46.9814 2.95696 30.1075 17.0754 23.9762 37.2812C22.6587 41.5781 22.5574 42.4989 22.5574 51.0927C22.5574 59.6354 22.6587 60.6073 23.9255 64.802C26.0538 71.7077 29.8035 78.6647 34.2627 83.9847L35.6815 85.6216L71.1521 51.1439C90.6609 32.1658 106.623 16.3593 106.623 15.95C106.623 14.8247 98.5658 8.73735 94.0559 6.48658C88.786 3.82658 82.0973 1.83158 77.2834 1.42235C75.3072 1.26888 73.1283 1.11542 72.4189 1.01311C71.7095 0.961961 69.3279 1.06427 67.0983 1.21773ZM80.8812 5.05427C85.1883 5.97504 89.1407 7.30504 92.6878 9.14658C96.0322 10.8347 100.745 14.0062 101.859 15.3362C102.67 16.257 101.099 17.8427 69.5306 48.535C51.2885 66.2343 36.2389 80.8131 35.9855 80.9154C35.4281 81.12 31.8304 75.8 29.9049 71.9635C24.787 61.6304 23.8242 47.1539 27.5233 36.1047C32.9452 20.0935 45.6133 8.73735 62.2844 5.00311C66.2369 4.1335 76.726 4.1335 80.8812 5.05427Z" fill="#9869FB"/>
<path d="M89.1408 47.8702C86.7592 50.1722 75.6113 61.0679 64.3113 72.0149C45.0559 90.7372 36.6443 98.9218 26.3071 109.05L22 113.296L24.5336 115.598C39.5326 129.256 61.575 132.223 79.7664 123.066C93.0425 116.365 102.316 104.651 105.964 89.9187C107.433 83.8825 107.535 73.4983 106.167 67.4622C104.342 59.431 100.339 51.2464 95.7282 46.1822L93.4479 43.6756L89.1408 47.8702Z" fill="#9869FB"/>
</svg>
