<svg width="603" height="133" viewBox="0 0 603 133" fill="none" xmlns="http://www.w3.org/2000/svg">
<path d="M52.9525 3.0688C32.8356 4.80803 15.9617 18.9265 9.83038 39.1323C8.5129 43.4292 8.41156 44.35 8.41156 52.9438C8.41156 61.4865 8.5129 62.4584 9.77971 66.653C11.9079 73.5588 15.6577 80.5157 20.1169 85.8357L21.5357 87.4727L57.0063 52.995C76.5151 34.0169 92.4769 18.2103 92.4769 17.8011C92.4769 16.6757 84.42 10.5884 79.9101 8.33765C74.6402 5.67765 67.9515 3.68265 63.1376 3.27342C61.1614 3.11996 58.9825 2.9665 58.2731 2.86419C57.5637 2.81303 55.1821 2.91534 52.9525 3.0688ZM66.7353 6.90534C71.0425 7.82611 74.9949 9.15611 78.542 10.9977C81.8863 12.6857 86.5989 15.8573 87.7137 17.1873C88.5244 18.108 86.9536 19.6938 55.3848 50.3861C37.1427 68.0853 22.0931 82.6642 21.8397 82.7665C21.2823 82.9711 17.6846 77.6511 15.759 73.8146C10.6411 63.4815 9.67837 49.005 13.3774 37.9557C18.7994 21.9446 31.4674 10.5884 48.1386 6.85419C52.0911 5.98457 62.5802 5.98457 66.7353 6.90534Z" fill="#9869FB"/>
<path d="M273.123 20.8194C262.533 22.6098 253.513 31.1525 251.385 41.3321C251.03 43.1225 250.828 52.8929 250.828 69.5691V95.146H257.162H263.496V77.2421V59.3383H270.337H277.177V53.4556V47.6241L270.489 47.4706C263.8 47.3171 263.749 47.3171 263.597 46.0895C263.293 44.1968 265.016 40.4114 267.246 37.956C269.627 35.3471 271.147 34.4775 274.644 33.7102L277.177 33.1475V26.8044V20.4614L275.809 20.5125C274.998 20.5637 273.833 20.7171 273.123 20.8194Z" fill="white"/>
<path d="M582.528 25.4743C582.326 25.6278 582.224 31.0501 582.224 37.4443C582.275 43.8385 582.123 49.1074 581.87 49.1074C581.667 49.0562 579.995 48.5958 578.171 48.0332C571.178 45.8847 563.07 47.0612 556.888 51.2047C549.997 55.9108 545.639 65.1697 546.45 73.4566C548.223 91.3605 566.263 101.233 582.224 93.0997C589.014 89.6212 593.879 82.4597 594.892 74.4285C595.247 72.0243 595.399 61.8958 595.298 49.8747L595.146 29.4132L588.964 27.2647C585.569 26.0882 582.68 25.2697 582.528 25.4743ZM577.056 61.5378C580.35 63.7374 581.92 66.4997 582.123 70.6432C582.275 73.4566 582.123 74.582 581.211 76.4235C577.056 85.1708 564.793 85.222 560.283 76.4747C558.104 72.2289 559.219 66.2439 562.817 62.8166C565.148 60.5658 567.377 59.7985 571.381 59.952C574.32 60.1055 575.333 60.3612 577.056 61.5378Z" fill="white"/>
<path d="M240.339 27.7764L234.106 29.8737V62.5098V95.146H240.44H246.774V60.3614C246.774 41.2298 246.723 25.5768 246.673 25.6279C246.571 25.6279 243.734 26.5998 240.339 27.7764Z" fill="white"/>
<path d="M148.875 27.8788C141.781 29.3622 135.498 34.3242 133.268 40.3092C132.356 42.7134 132.204 43.9922 132.356 47.573C132.863 57.1899 137.575 61.8961 152.828 67.8299C160.124 70.6434 162.506 72.1269 163.469 74.5311C166.408 81.5392 155.564 85.5292 146.24 80.8742C143.96 79.7488 142.085 78.3165 140.21 76.1169L137.474 73.0476L133.116 78.3165L128.758 83.6365L130.886 85.8361C133.927 89.0076 139.349 92.4861 143.555 94.0719C146.848 95.2995 147.862 95.4019 154.297 95.4019C160.428 95.3507 161.797 95.1972 164.229 94.2253C172.843 90.7469 177.454 84.2503 177.505 75.4519C177.505 72.0245 177.252 70.7969 176.086 68.1369C173.502 62.3565 169.651 59.6453 156.273 54.2742C152.676 52.8419 148.824 50.9492 147.811 50.0795C146.139 48.6984 145.936 48.238 145.936 46.243C145.936 44.4015 146.24 43.6342 147.355 42.4576C151.257 38.5188 159.263 39.8999 166.509 45.8338L168.587 47.5219L169.853 46.1407C170.563 45.3734 172.438 43.0203 174.009 40.923L176.948 37.0865L174.769 35.1938C172.032 32.7895 165.394 29.4134 161.594 28.4415C157.084 27.3161 152.625 27.1115 148.875 27.8788Z" fill="white"/>
<path d="M416.779 28.3899C404.821 31.6126 396.865 38.8765 392.558 50.3349C391.089 54.1715 390.987 54.9388 390.987 61.3841C390.937 67.8295 391.038 68.5968 392.507 72.6891C397.575 86.9611 409.685 95.6572 424.482 95.6572C430.461 95.6572 435.173 94.583 439.785 92.1788C448.5 87.6261 455.088 79.3903 457.317 70.1315C457.773 68.1876 458.179 64.1976 458.229 60.8726L458.331 54.9899L441.508 54.8365L424.634 54.7341V61.6399V68.5457H434.211H443.838L443.332 69.9268C442.572 72.1776 439.278 76.2699 436.542 78.3672C428.637 84.4034 416.931 83.4826 409.989 76.2699C402.034 68.0341 402.034 55.348 409.888 47.3168C412.878 44.2476 415.513 42.713 419.566 41.6388C426.306 39.8995 433.197 41.7411 438.67 46.7541L441.355 49.2095L446.423 45.4241C449.21 43.378 451.49 41.4341 451.49 41.0761C451.49 40.7691 449.818 38.9276 447.74 36.9838C440.95 30.5895 433.349 27.5715 424.178 27.6738C421.492 27.6738 418.198 27.9807 416.779 28.3899Z" fill="white"/>
<path d="M281.231 50.5397C281.231 75.1958 281.332 76.2189 284.373 81.9993C287.565 88.0354 294.811 93.7135 301.247 95.1458C304.844 95.9643 311.432 95.8108 314.675 94.8389C324.252 91.9743 331.447 84.3012 333.373 74.7866C333.728 73.0474 333.93 64.0443 333.93 50.1304V28.1343H327.343H320.806L320.654 50.2327C320.502 74.6843 320.553 74.0704 317.158 78.0093C311.178 84.8639 300.233 83.2781 295.774 74.94C294.71 72.945 294.659 72.3312 294.507 50.4885L294.355 28.1343H287.818H281.231V50.5397Z" fill="white"/>
<path d="M74.9949 49.7213C72.6133 52.0232 61.4654 62.919 50.1655 73.8659C30.9101 92.5882 22.4985 100.773 12.1613 110.901L7.85419 115.147L10.3878 117.449C25.3868 131.107 47.4292 134.074 65.6206 124.917C78.8967 118.216 88.1697 106.502 91.8181 91.7698C93.2876 85.7336 93.389 75.3494 92.0208 69.3132C90.1966 61.2821 86.1935 53.0975 81.5823 48.0332L79.3021 45.5267L74.9949 49.7213Z" fill="#9869FB"/>
<path d="M483.718 46.8568C474.444 49.1075 466.996 55.911 463.702 65.1698C462.486 68.6483 462.435 69.4156 462.232 81.9483L462.03 95.146H468.668H475.306V82.7156C475.306 70.7968 475.357 70.2341 476.522 67.7787C478.549 63.2771 482.957 59.901 487.873 59.0825L490.001 58.7245V52.3814V46.0383L488.379 46.0895C487.467 46.0895 485.339 46.4475 483.718 46.8568Z" fill="white"/>
<path d="M529.88 46.9078C529.677 47.0613 529.525 47.6751 529.525 48.2378C529.525 49.0051 529.323 49.1586 528.41 48.8517C523.191 47.2148 521.874 47.0101 517.06 47.1636C512.347 47.3171 511.638 47.4705 508.091 49.2609C492.889 56.8317 489.494 76.7817 501.351 88.8028C508.04 95.504 518.175 97.8571 526.637 94.6344C529.779 93.4067 529.525 93.4578 529.525 94.3786C529.525 95.0436 530.589 95.1459 535.859 95.1459H542.193V70.8478V46.5498H536.214C532.92 46.5498 530.032 46.7032 529.88 46.9078ZM524.002 61.2821C527.701 63.2259 529.677 66.3974 529.931 70.7967C530.387 77.8047 525.522 83.0224 518.631 83.0224C510.827 83.0224 505.304 75.8098 507.432 68.3413C509.56 61.0263 517.313 57.7524 524.002 61.2821Z" fill="white"/>
<path d="M199.649 47.8285C194.886 49.2096 191.592 51.1023 188.197 54.5296C179.177 63.635 179.481 79.4416 188.805 88.7516C194.632 94.532 203.855 97.0385 211.607 94.9412C214.952 94.0716 219.918 91.3604 221.641 89.57L222.958 88.1889L218.752 83.9431L214.496 79.7485L211.81 81.4366C209.479 82.92 208.668 83.1246 205.78 83.1246C203.094 83.1246 201.98 82.8689 200.155 81.7946C197.521 80.2089 195.747 78.4185 196.304 77.8558C196.507 77.6512 204.057 77.4977 213.077 77.5489H229.495L229.799 75.7585C230.204 73.3543 229.292 65.8346 228.279 62.9189C224.326 51.665 210.898 44.5546 199.649 47.8285ZM209.124 60.1054C210.645 60.5658 212.418 61.5889 213.584 62.7654L215.56 64.7093L206.033 64.8627C200.764 64.9139 196.355 64.8627 196.203 64.7093C195.798 64.3 198.179 61.8958 199.902 61.0262C203.348 59.1846 205.425 58.98 209.124 60.1054Z" fill="white"/>
<path d="M354.605 48.0333C346.902 50.5909 340.315 57.7525 338.541 65.5279C338.237 66.8579 337.984 76.2702 337.984 88.0867V108.344L343.71 110.287C346.801 111.311 349.689 112.282 350.044 112.436C350.5 112.589 350.652 110.543 350.652 103.126C350.652 97.9083 350.804 93.6113 351.057 93.6113C351.26 93.6113 352.78 94.0717 354.402 94.6344C360.989 96.8852 366.817 96.4248 373.353 93.2533C376.85 91.514 381.866 86.6033 383.69 83.0736C390.278 70.5921 385.261 55.3483 372.644 49.2609C368.843 47.4194 368.337 47.3171 363.067 47.2148C358.709 47.1125 356.885 47.2659 354.605 48.0333ZM365.854 60.3613C366.817 60.6171 368.489 61.589 369.553 62.4586C374.873 66.8579 375.228 74.8379 370.364 79.7486C364.79 85.3756 355.618 83.8921 352.071 76.7817C347.358 67.3694 355.669 57.4967 365.854 60.3613Z" fill="white"/>
</svg>
